<?xml version="1.0" encoding="utf-8"?>
<!-- Generator: Adobe Illustrator 26.1.0, SVG Export Plug-In . SVG Version: 6.00 Build 0)  -->
<svg version="1.1" id="Capa_1" xmlns="http://www.w3.org/2000/svg" xmlns:xlink="http://www.w3.org/1999/xlink" x="0px" y="0px"
	 viewBox="0 0 1920 550" style="enable-background:new 0 0 1920 550;" xml:space="preserve">
<style type="text/css">
	.st0{fill:url(#SVGID_1_);}
	.st1{fill:url(#SVGID_00000008147391104521413860000017368350259977325234_);}
	.st2{fill:url(#SVGID_00000168838022515482432450000002665238990895656611_);}
</style>
<linearGradient id="SVGID_1_" gradientUnits="userSpaceOnUse" x1="727.0703" y1="623.4945" x2="786.474" y2="-55.4927" gradientTransform="matrix(1 0 0 1 95.8304 0)">
	<stop  offset="0" style="stop-color:#191919"/>
	<stop  offset="1" style="stop-color:#184E74"/>
</linearGradient>
<path class="st0" d="M1718.7,246.9l-79-112.8l-1.2-1.7l-78.7-112.3c-8.5-12.2-22.4-19.4-37.2-19.4h-144.7c-0.3,0-0.7,0-1,0
	c-1.1,0.1-2.1,0.3-3.2,0.4c-5.7,0.6-11.5,0.9-17.3,0.9H0v549.5h1535.8c11.9,0,23-5.8,29.9-15.6l42.9-61.3l4.9-7
	c0.1,0,0.1-0.1,0.1-0.1l3.1-4.5c0.5-0.7,1-1.3,1.5-2.1l20.3-29l3.1-4.4l10.9-15.5l0,0l66.2-94.6
	C1733.5,296.3,1733.5,268.1,1718.7,246.9z"/>
<linearGradient id="SVGID_00000058573904226287760750000007399684037222655106_" gradientUnits="userSpaceOnUse" x1="493.9514" y1="766.163" x2="838.3253" y2="-179.9966" gradientTransform="matrix(1 0 0 1 95.8304 0)">
	<stop  offset="0" style="stop-color:#191919"/>
	<stop  offset="1" style="stop-color:#184E74"/>
</linearGradient>
<path style="fill:url(#SVGID_00000058573904226287760750000007399684037222655106_);" d="M1618.7,246.9l-79-112.8l-1.2-1.7
	l-78.7-112.3c-8.5-12.2-22.4-19.4-37.2-19.4h-144.7c-0.3,0-0.7,0-1,0c-1.1,0.1-2.1,0.3-3.2,0.4c-5.7,0.6-11.5,0.9-17.3,0.9H0v549.5
	h1435.9c11.9,0,23-5.8,29.9-15.6l42.9-61.3l4.9-7c0.1,0,0.1-0.1,0.1-0.1l3.1-4.5c0.5-0.7,1-1.3,1.5-2.1l20.3-29l3.1-4.4l10.9-15.5
	l0,0l66.2-94.6C1633.6,296.3,1633.6,268.1,1618.7,246.9z"/>
<linearGradient id="SVGID_00000120547214695571383680000014813874200547312263_" gradientUnits="userSpaceOnUse" x1="-96.5704" y1="275.7501" x2="1436.5846" y2="275.7501" gradientTransform="matrix(1 0 0 1 95.8304 0)">
	<stop  offset="0" style="stop-color:#191919"/>
	<stop  offset="1" style="stop-color:#184E74"/>
</linearGradient>
<path style="fill:url(#SVGID_00000120547214695571383680000014813874200547312263_);" d="M-0.7,551.5h1338.9
	c11.9,0,23-5.8,29.9-15.6l42.9-61.4l4.9-7c0.1,0,0.1-0.1,0.1-0.1l3.1-4.5c0.5-0.7,1-1.3,1.5-2.1l20.3-29l3.1-4.4l10.9-15.5l0,0
	l66.3-94.7c14.9-21.2,14.9-49.5,0-70.8l-79.1-112.9l-1.2-1.7l-78.8-112.4C1353.7,7.2,1339.8,0,1325,0h-184.9c-0.3,0-0.7,0-1,0
	c-1.1,0.1-62.2,0.3-63.3,0.4c-5.7,0.6-11.5-0.1-17.3-0.1H-0.7"/>
</svg>
