<?xml version="1.0" encoding="utf-8"?>
<!-- Generator: Adobe Illustrator 26.1.0, SVG Export Plug-In . SVG Version: 6.00 Build 0)  -->
<svg version="1.1" id="Capa_1" xmlns="http://www.w3.org/2000/svg" xmlns:xlink="http://www.w3.org/1999/xlink" x="0px" y="0px"
	 viewBox="0 0 1920 550" style="enable-background:new 0 0 1920 550;" xml:space="preserve">
<style type="text/css">
	.st0{fill:url(#SVGID_1_);}
	.st1{fill:url(#SVGID_00000068656855466749017760000000530800406446471602_);}
	.st2{fill:url(#SVGID_00000176001032885317841470000002620969736512278914_);}
</style>
<linearGradient id="SVGID_1_" gradientUnits="userSpaceOnUse" x1="719.5817" y1="1050.1255" x2="778.9854" y2="371.1383" gradientTransform="matrix(-1 0 0 -1 1817.4248 978.131)">
	<stop  offset="0" style="stop-color:#191919"/>
	<stop  offset="1" style="stop-color:#3D437F"/>
</linearGradient>
<path class="st0" d="M202,304.6l79,112.8l1.2,1.7l78.7,112.3c8.5,12.2,22.4,19.4,37.2,19.4h144.7c0.3,0,0.7,0,1,0
	c1.1-0.1,2.1-0.3,3.2-0.4c5.7-0.6,11.5-0.9,17.3-0.9h1356.4V0H384.9c-11.9,0-23,5.8-29.9,15.6l-42.9,61.3l-4.9,7
	c-0.1,0-0.1,0.1-0.1,0.1l-3.1,4.5c-0.5,0.7-1,1.3-1.5,2.1l-20.3,29l-3.1,4.4l-10.9,15.5l0,0L202,234.1
	C187.2,255.2,187.2,283.4,202,304.6z"/>
<linearGradient id="SVGID_00000181085289475144667250000002167490274197542791_" gradientUnits="userSpaceOnUse" x1="486.4628" y1="1192.7939" x2="830.8367" y2="246.6344" gradientTransform="matrix(-1 0 0 -1 1817.4248 978.131)">
	<stop  offset="0" style="stop-color:#191919"/>
	<stop  offset="1" style="stop-color:#3D437F"/>
</linearGradient>
<path style="fill:url(#SVGID_00000181085289475144667250000002167490274197542791_);" d="M302,304.6l79,112.8l1.2,1.7l78.7,112.3
	c8.5,12.2,22.4,19.4,37.2,19.4h144.7c0.3,0,0.7,0,1,0c1.1-0.1,2.1-0.3,3.2-0.4c5.7-0.6,11.5-0.9,17.3-0.9h1256.4V0H484.8
	c-11.9,0-23,5.8-29.9,15.6L412,76.9l-4.9,7c-0.1,0-0.1,0.1-0.1,0.1l-3.1,4.5c-0.5,0.7-1,1.3-1.5,2.1l-20.3,29L379,124l-10.9,15.5
	l0,0l-66.2,94.6C287.1,255.2,287.1,283.4,302,304.6z"/>
<linearGradient id="SVGID_00000162333187451564227410000009424467577174176177_" gradientUnits="userSpaceOnUse" x1="-104.059" y1="702.3811" x2="1429.0961" y2="702.3811" gradientTransform="matrix(-1 0 0 -1 1817.4248 978.131)">
	<stop  offset="0" style="stop-color:#191919"/>
	<stop  offset="1" style="stop-color:#3D437F"/>
</linearGradient>
<path style="fill:url(#SVGID_00000162333187451564227410000009424467577174176177_);" d="M1921.5,0H582.6c-11.9,0-23,5.8-29.9,15.6
	L509.7,77l-4.9,7c-0.1,0-0.1,0.1-0.1,0.1l-3.1,4.5c-0.5,0.7-1,1.3-1.5,2.1l-20.3,29l-3.1,4.4l-10.9,15.5l0,0l-66.3,94.7
	c-14.9,21.2-14.9,49.5,0,70.8L478.6,418l1.2,1.7l78.8,112.4c8.5,12.2,22.4,19.4,37.2,19.4h184.9c0.3,0,0.7,0,1,0
	c1.1-0.1,62.2-0.3,63.3-0.4c5.7-0.6,11.5,0.1,17.3,0.1h1059.3"/>
</svg>
