<?xml version="1.0" encoding="utf-8"?>
<!-- Generator: Adobe Illustrator 26.1.0, SVG Export Plug-In . SVG Version: 6.00 Build 0)  -->
<svg version="1.1" id="Capa_1" xmlns="http://www.w3.org/2000/svg" xmlns:xlink="http://www.w3.org/1999/xlink" x="0px" y="0px"
	 viewBox="0 0 24 24" style="enable-background:new 0 0 24 24;" xml:space="preserve">
<style type="text/css">
	.st0{fill:#FFFFFF;}
</style>
<ellipse class="st0" cx="11.9" cy="4.5" rx="9.1" ry="2.7"/>
<path class="st0" d="M21,5.7V12c0,1.5-4.1,2.7-9.1,2.7c-5,0-9.1-1.2-9.1-2.7V5.7c0,1.5,4.1,2.7,9.1,2.7C16.9,8.4,21,7.2,21,5.7z"/>
<path class="st0" d="M21,13.1v6.4c0,1.5-4.1,2.7-9.1,2.7c-5,0-9.1-1.2-9.1-2.7v-6.4c0,1.5,4.1,2.7,9.1,2.7
	C16.9,15.9,21,14.6,21,13.1z"/>
</svg>
