<?xml version="1.0" encoding="utf-8"?>
<!-- Generator: Adobe Illustrator 27.0.0, SVG Export Plug-In . SVG Version: 6.00 Build 0)  -->
<svg version="1.1" id="Layer_1" xmlns="http://www.w3.org/2000/svg" xmlns:xlink="http://www.w3.org/1999/xlink" x="0px" y="0px"
	 viewBox="0 0 1702.1 572.5" style="enable-background:new 0 0 1702.1 572.5;" xml:space="preserve">
<style type="text/css">
	.st0{fill:#FFFFFF;}
	.st1{fill:#242E3D;}
	.st2{fill:#FF9900;}
</style>
<g>
	<path class="st0" d="M377.2,39H41.9v337L198,532.2h337V196.9L377.2,39z M377.2,39"/>
	<path class="st1" d="M373.1,49.3L524.7,201v320.9H202.1l-150-150V49.3H373.1 M377.2,39H41.9v337L198,532.2h337V196.9L377.2,39z
		 M377.2,39"/>
	<path class="st1" d="M122,316.8v18.1h-10.3v-49.3h18.9c4.5-0.4,8.6,1.2,12.3,4.1c6.2,6.6,6.2,16.4,0,23c-3.3,2.9-7.8,4.5-12.3,4.1
		H122z M122,309h7.4c2.1,0,4.1-0.4,5.3-2.1c2.5-3.3,2.5-8.2,0-11.5c-1.6-1.2-3.3-2.1-5.3-2.1H122V309z M190.6,334.9l-3.3-11.1h-16.8
		l-3.3,11.1h-11.1l17.2-49.3h11.9l16.8,49.3H190.6z M172.6,316h12.3l-6.2-20.5L172.6,316z M216.9,334.9v-49.3h18.9
		c4.5-0.4,8.7,1.2,12.3,4.1c2.9,2.9,4.5,7,4.5,11.1c0,2.9-0.8,5.4-2.5,7.8c-1.6,2.5-4.1,4.1-6.6,5.4l12.3,21.4h-11.1L234.2,316h-7
		v18.9H216.9z M227.2,308.2h7.4c3.7,0.4,7-2.1,7.4-5.8c0-0.8,0-1.2,0-2.1c0.4-3.7-2.1-7-5.3-7.4c-0.4,0-1.2,0-1.6,0h-7.4v15.2H227.2
		z M281,334.9v-40.7h-15.2v-8.6h40.7v8.6h-15.2v40.7H281z M332.4,300.8v34.1H323v-49.3h11.5l20.1,34.5v-34.5h9.5v49.3h-11.5
		L332.4,300.8z M383,334.9v-49.3h32.5v8.2h-21.8v11.5h17.7v8.2h-17.7v13.1h21.8v8.2H383z M434.3,334.9v-49.3h18.9
		c4.5-0.4,8.6,1.2,12.3,4.1c2.9,2.9,4.5,7,4.5,11.1c0,2.9-0.8,5.4-2.5,7.8c-1.6,2.5-4.1,4.1-6.6,5.4l12.3,21.4h-11.1L451.6,316h-7
		v18.9H434.3z M444.6,308.2h7.4c3.7,0.4,7-2.1,7.4-5.8c0-0.8,0-1.2,0-2.1c0.4-3.7-2.1-7-5.3-7.4c-0.4,0-1.2,0-1.6,0h-7.8V308.2z
		 M444.6,308.2"/>
	<path class="st1" d="M151.6,152.1c0,1.6,0,3.3,0.8,4.9c0.4,1.2,1.2,2.9,1.6,4.1c0.4,0.4,0.4,0.8,0.4,1.2c0,0.8-0.4,1.2-1.2,1.6
		l-3.7,2.5c0,0-0.4,0-1.2,0c-0.8,0-1.2-0.4-1.6-0.8c-0.8-0.8-1.6-1.6-2.1-2.5c-0.4-0.8-1.2-2.1-1.6-3.3c-4.1,4.9-9.9,7.8-16.4,7.8
		c-4.1,0.4-8.2-1.2-11.1-4.1c-2.9-2.9-4.1-6.6-4.1-10.7c0-4.5,1.6-8.6,4.9-11.5c3.7-2.9,8.6-4.5,13.6-4.5c2.1,0,4.1,0,5.8,0.4
		c2.1,0.4,4.1,0.8,6.2,1.2v-4.1c0.4-3.3-0.4-6.6-2.5-9c-2.5-2.1-5.7-2.9-9-2.5c-2.1,0-4.1,0.4-6.2,0.8c-2.1,0.4-4.1,1.2-6.2,2.1
		c-0.8,0.4-1.2,0.4-2.1,0.8c-0.4,0-0.4,0-0.8,0c-0.8,0-1.2-0.4-1.2-1.6V122c0-0.8,0-1.2,0.4-2.1c0.4-0.4,0.8-0.8,1.6-1.2
		c2.1-1.2,4.5-2.1,7-2.5c2.9-0.8,5.8-1.2,8.7-1.2c5.3-0.4,10.3,1.2,14.4,4.5c3.3,3.7,4.9,8.6,4.5,13.6L151.6,152.1z M129,160.3
		c2.1,0,3.7-0.4,5.8-0.8c2.1-0.8,3.7-2.1,5.4-3.7c0.8-0.8,1.6-2.1,2.1-3.7s0.4-3.3,0.4-4.9v-2.5c-1.6-0.4-3.3-0.8-4.9-0.8
		c-1.6-0.4-3.3-0.4-5.4-0.4c-2.9-0.4-5.8,0.4-8.2,2.1c-3.3,3.3-3.7,8.6-0.8,12.3C124.9,159.9,126.9,160.7,129,160.3L129,160.3z
		 M173.8,166.4c-0.8,0-1.6,0-2.1-0.4c-0.4-0.4-0.8-1.2-1.2-2.1l-13.2-43.1c-0.4-0.8-0.4-1.6-0.4-2.1c0-0.8,0.4-1.2,0.8-1.2h0.4h5.3
		c0.8,0,1.6,0,2.1,0.4c0.4,0.4,0.8,1.2,1.2,2.1l9.4,36.6l8.7-36.6c0-0.8,0.4-1.6,1.2-2.1c0.8-0.4,1.6-0.4,2.1-0.4h4.5
		c0.8,0,1.6,0,2.1,0.4c0.4,0.4,0.8,1.2,1.2,2.1l8.6,37.4l9.5-37.4c0-0.8,0.4-1.6,1.2-2.1c0.8-0.4,1.2-0.4,2.1-0.4h5.4
		c0.8,0,1.2,0.4,1.2,0.8v0.4c0,0.4,0,0.4,0,0.8c0,0.4-0.4,0.8-0.4,1.2l-13.1,42.7c0,0.8-0.4,1.6-1.2,2.1c-0.4,0.8-1.2,0.8-2.1,0.8
		h-4.9c-0.8,0-1.6,0-2.1-0.4c-0.4-0.8-0.8-1.2-1.2-2.1l-8.6-35.8l-8.6,35.8c0,0.8-0.4,1.6-1.2,2.1c-0.4,0.4-1.2,0.4-1.6,0.4H173.8z
		 M245.3,168.1c-2.9,0-5.8-0.4-8.6-0.8c-2.1-0.4-4.5-1.2-6.6-2.1c-1.2-0.4-2.1-1.6-2.1-3.3V159c0-1.2,0.4-1.6,1.2-1.6
		c0.4,0,0.8,0,0.8,0c0.4,0,0.8,0.4,1.2,0.4c2.1,0.8,4.1,1.6,6.2,2.1c2.1,0.4,4.5,0.8,6.6,0.8c2.9,0,5.8-0.4,8.2-2.1
		c1.6-1.2,2.9-3.3,2.9-5.3c0-1.6-0.4-2.9-1.6-3.7c-1.6-1.2-3.7-2.5-5.8-2.9l-8.2-2.5c-3.3-0.8-6.6-2.9-9-5.8
		c-1.6-2.5-2.9-5.3-2.9-8.2c0-2.1,0.4-4.1,1.6-6.2c0.8-1.6,2.5-3.3,4.1-4.5c1.6-1.2,3.7-2.5,5.8-2.9c2.5-0.8,4.5-0.8,7-0.8
		c1.2,0,2.5,0,3.7,0.4c1.2,0,2.5,0.4,3.7,0.8c1.2,0.4,2.1,0.4,3.3,0.8c0.8,0.4,1.6,0.4,2.5,0.8c0.8,0.4,1.2,0.8,1.6,1.2
		c0.4,0.4,0.4,1.2,0.4,2.1v2.5c0,1.2-0.4,1.6-1.2,1.6c-0.8,0-1.6-0.4-2.1-0.8c-3.3-1.6-7-2.1-10.7-2.1c-2.5,0-4.9,0.4-7.4,1.6
		c-1.6,0.8-2.9,2.9-2.5,4.9c0,1.6,0.4,2.9,1.6,4.1c1.6,1.6,3.7,2.5,6.2,2.9l7.8,2.5c3.3,0.8,6.2,2.9,8.6,5.3
		c1.6,2.1,2.5,4.9,2.5,7.8c0,2.1-0.4,4.5-1.6,6.6c-0.8,2.1-2.5,3.7-4.1,4.9c-1.6,1.2-4.1,2.5-6.2,3.3
		C250.7,167.7,247.8,168.1,245.3,168.1L245.3,168.1z M245.3,168.1"/>
	<path class="st2" d="M255.6,194.8c-18.5,13.5-44.8,20.5-67.8,20.5c-30.4,0-60-11.1-82.6-31.7c-1.6-1.6,0-3.7,2.1-2.5
		c25.1,14.8,53.8,22.2,82.6,22.2c21.8,0,43.1-4.5,63.3-12.7C256,189.4,258.9,192.7,255.6,194.8L255.6,194.8z M258.4,207.1
		c-0.8,1.6,0.8,2.5,2.5,1.2c9.8-8.2,12.3-25.5,10.3-27.9c-2.1-2.5-19.3-4.5-29.6,2.9c-1.6,1.2-1.2,2.9,0.4,2.5
		c5.8-0.8,18.9-2.5,21.4,0.8C265.8,189.8,260.5,201.8,258.4,207.1L258.4,207.1z M258.4,207.1"/>
	<path class="st1" d="M226.8,380.1l-2.4-7.1h-10.9l-2.3,7.1H206l10.3-28.5h5.5l10.3,28.5H226.8z M214.6,369.3h8.6l-4.3-13.2
		L214.6,369.3z M214.6,369.3"/>
	<path class="st1" d="M249.9,380.1l-0.5-2c-1.9,1.6-4,2.4-6.5,2.4c-2.6,0-4.7-1-6.3-2.9c-1.6-2-2.4-4.6-2.4-8c0-2.2,0.3-4.1,1.1-5.8
		c0.7-1.7,1.8-3,3.1-3.9c1.3-0.9,2.9-1.4,4.8-1.4c2.2,0,4.2,0.7,6,2.1v-11h4.8v30.4H249.9z M244.5,376.8c1.6,0,3.2-0.5,4.8-1.6
		v-11.3c-1.4-1-3-1.5-4.7-1.5c-1.8,0-3.1,0.6-4,1.8c-0.9,1.2-1.3,2.9-1.3,5.3C239.2,374.4,241,376.8,244.5,376.8L244.5,376.8z
		 M244.5,376.8"/>
	<path class="st1" d="M265.4,380.1l-8.2-20.9h5.2l5.3,16.6l5.4-16.6h4.9l-8,20.9H265.4z M265.4,380.1"/>
	<path class="st1" d="M293.6,380.1l-0.4-2c-1,0.8-2.1,1.5-3.2,1.9c-1.2,0.5-2.3,0.7-3.5,0.7c-1.9,0-3.5-0.6-4.7-1.7
		c-1.2-1.2-1.7-2.7-1.7-4.5c0-2,0.7-3.6,2.2-4.8c1.4-1.2,3.4-1.9,5.9-1.9c1.4,0,3,0.2,4.8,0.6v-2.4c0-1.4-0.3-2.4-0.9-2.9
		c-0.6-0.5-1.6-0.8-3.1-0.8c-2.1,0-4.6,0.4-7.4,1.3v-3.4c1-0.5,2.3-0.9,3.7-1.2c1.4-0.3,2.9-0.4,4.4-0.4c2.7,0,4.6,0.6,5.9,1.7
		c1.3,1.1,1.9,2.8,1.9,5.1v14.8H293.6z M287.9,377.3c0.8,0,1.6-0.1,2.5-0.5c0.9-0.3,1.8-0.8,2.6-1.5v-3.9c-1.5-0.3-2.7-0.4-3.9-0.4
		c-2.9,0-4.3,1.1-4.3,3.3c0,1,0.3,1.8,0.8,2.3C286.2,377,286.9,377.3,287.9,377.3L287.9,377.3z M287.9,377.3"/>
	<path class="st1" d="M317.1,380.1v-13.9c0-1.3-0.3-2.3-0.8-2.9c-0.6-0.6-1.5-1-2.6-1c-1.8,0-3.6,0.6-5.5,1.8v15.9h-4.9v-20.9h4
		l0.4,2.3c2.6-1.9,5.3-2.9,8.1-2.9c2,0,3.5,0.6,4.6,1.6c1,1,1.5,2.5,1.5,4.6v15.3H317.1z M317.1,380.1"/>
	<path class="st1" d="M342.5,379.3c-1.6,0.9-3.6,1.3-5.8,1.3c-3.2,0-5.7-0.9-7.5-2.8c-1.7-1.9-2.6-4.5-2.6-8c0-3.5,0.9-6.2,2.7-8.2
		c1.8-2,4.3-3,7.5-3c1.9,0,3.8,0.4,5.5,1.2v3.5c-1.8-0.5-3.4-0.8-4.7-0.8c-2.1,0-3.6,0.6-4.6,1.7c-1,1.1-1.5,2.9-1.5,5.2v0.5
		c0,2.3,0.5,4,1.5,5.1c1,1.1,2.5,1.6,4.6,1.6c1.4,0,3.1-0.3,4.8-0.8V379.3z M342.5,379.3"/>
	<path class="st1" d="M350.2,370.8c0.1,2.1,0.7,3.6,1.7,4.6c1.1,0.9,2.8,1.4,5,1.4c2.1,0,4.3-0.3,6.6-1.1v3.4
		c-0.9,0.5-2.1,0.9-3.3,1.2c-1.3,0.3-2.6,0.4-4,0.4c-3.4,0-6-0.9-7.8-2.8c-1.8-1.9-2.7-4.6-2.7-8.2c0-3.5,0.9-6.2,2.6-8.2
		c1.8-2,4.2-3,7.3-3c2.7,0,4.7,0.7,6.2,2.2c1.4,1.5,2.2,3.5,2.2,6.2c0,1.4-0.1,2.7-0.4,3.8H350.2z M355.4,362.1
		c-1.5,0-2.7,0.5-3.6,1.5c-0.9,1-1.5,2.3-1.6,4h9.5v-0.3c0-1.7-0.4-2.9-1.1-3.8C357.9,362.6,356.8,362.1,355.4,362.1L355.4,362.1z
		 M355.4,362.1"/>
	<path class="st1" d="M383.3,380.1l-0.5-2c-1.9,1.6-4,2.4-6.5,2.4c-2.6,0-4.7-1-6.3-2.9c-1.6-2-2.4-4.6-2.4-8c0-2.2,0.3-4.1,1.1-5.8
		c0.7-1.7,1.8-3,3.1-3.9c1.3-0.9,2.9-1.4,4.8-1.4c2.2,0,4.2,0.7,6,2.1v-11h4.8v30.4H383.3z M377.9,376.8c1.6,0,3.2-0.5,4.8-1.6
		v-11.3c-1.4-1-3-1.5-4.7-1.5c-1.8,0-3.1,0.6-4,1.8c-0.9,1.2-1.3,2.9-1.3,5.3C372.6,374.4,374.4,376.8,377.9,376.8L377.9,376.8z
		 M377.9,376.8"/>
	<path class="st1" d="M410.7,380.1v-24.4h-8.9v-4.1h22.9v4.1h-8.9v24.4H410.7z M410.7,380.1"/>
	<path class="st1" d="M428.3,380.1v-20.9h4.8v20.9H428.3z M430.7,355.7c-0.9,0-1.6-0.2-2.1-0.7c-0.5-0.5-0.8-1.2-0.8-2.1
		c0-0.9,0.3-1.6,0.8-2.1c0.5-0.5,1.2-0.8,2.1-0.8c0.9,0,1.7,0.3,2.2,0.8c0.5,0.5,0.8,1.2,0.8,2.1c0,0.9-0.3,1.5-0.8,2.1
		C432.4,355.5,431.6,355.7,430.7,355.7L430.7,355.7z M430.7,355.7"/>
	<path class="st1" d="M442.6,370.8c0.1,2.1,0.7,3.6,1.7,4.6c1.1,0.9,2.8,1.4,5,1.4c2.1,0,4.3-0.3,6.6-1.1v3.4
		c-0.9,0.5-2.1,0.9-3.3,1.2c-1.3,0.3-2.6,0.4-4,0.4c-3.4,0-6-0.9-7.8-2.8c-1.8-1.9-2.7-4.6-2.7-8.2c0-3.5,0.9-6.2,2.6-8.2
		c1.8-2,4.2-3,7.3-3c2.7,0,4.7,0.7,6.2,2.2c1.4,1.5,2.2,3.5,2.2,6.2c0,1.4-0.1,2.7-0.4,3.8H442.6z M447.8,362.1
		c-1.5,0-2.7,0.5-3.6,1.5c-0.9,1-1.5,2.3-1.6,4h9.5v-0.3c0-1.7-0.4-2.9-1.1-3.8C450.3,362.6,449.2,362.1,447.8,362.1L447.8,362.1z
		 M447.8,362.1"/>
	<path class="st1" d="M461.1,380.1v-20.9h4l0.6,3.1c1.1-1.2,2.1-2,3.1-2.5c0.9-0.5,2-0.8,3.1-0.8c0.5,0,1,0,1.7,0.1v4.4
		c-0.8-0.1-1.6-0.2-2.4-0.2c-2,0-3.8,0.5-5.3,1.5v15.2H461.1z M461.1,380.1"/>
	<path class="st1" d="M332.6,408.1c-2.3-0.9-4-1.9-5.1-3.1c-1-1.2-1.5-2.8-1.5-4.6c0-2.6,0.9-4.6,2.7-6.1c1.8-1.5,4.2-2.2,7.3-2.2
		c2.5,0,5.1,0.5,7.7,1.5v4c-2.7-0.8-5.1-1.2-7.3-1.2c-3.6,0-5.5,1.2-5.5,3.7c0,0.9,0.3,1.7,1,2.3c0.7,0.6,1.9,1.2,3.5,1.8l3.5,1.3
		c2.3,0.9,3.9,1.9,4.9,3.1c1,1.2,1.5,2.7,1.5,4.6c0,2.7-1,4.9-3,6.5c-1.9,1.6-4.6,2.4-8,2.4c-1.5,0-2.9-0.2-4.4-0.4
		c-1.5-0.3-2.7-0.7-3.8-1.2v-4c1.3,0.4,2.7,0.8,4.2,1c1.5,0.3,2.8,0.4,4,0.4c1.9,0,3.4-0.3,4.4-1c1-0.7,1.6-1.7,1.6-3
		c0-0.9-0.3-1.7-1-2.3c-0.6-0.6-1.7-1.2-3.3-1.8L332.6,408.1z M332.6,408.1"/>
	<path class="st1" d="M353.9,411.9c0.1,2.1,0.7,3.6,1.7,4.6c1.1,0.9,2.8,1.4,5,1.4c2.1,0,4.3-0.3,6.6-1.1v3.4
		c-0.9,0.5-2.1,0.9-3.3,1.2c-1.3,0.3-2.6,0.4-4,0.4c-3.4,0-6-0.9-7.8-2.8c-1.8-1.9-2.7-4.6-2.7-8.2c0-3.5,0.9-6.2,2.6-8.2
		c1.8-2,4.2-3,7.3-3c2.7,0,4.7,0.7,6.2,2.2c1.4,1.5,2.2,3.5,2.2,6.2c0,1.4-0.1,2.7-0.4,3.8H353.9z M359.1,403.2
		c-1.5,0-2.7,0.5-3.6,1.5c-0.9,1-1.5,2.3-1.6,4h9.5v-0.3c0-1.7-0.4-2.9-1.1-3.8C361.5,403.7,360.5,403.2,359.1,403.2L359.1,403.2z
		 M359.1,403.2"/>
	<path class="st1" d="M372.4,421.2v-20.9h4l0.6,3.1c1.1-1.2,2.1-2,3.1-2.5c0.9-0.5,2-0.8,3.2-0.8c0.5,0,1,0,1.7,0.1v4.4
		c-0.8-0.1-1.6-0.2-2.4-0.2c-2,0-3.8,0.5-5.3,1.5v15.2H372.4z M372.4,421.2"/>
	<path class="st1" d="M393.7,421.2l-8.2-20.9h5.2l5.3,16.6l5.4-16.6h4.9l-8,20.9H393.7z M393.7,421.2"/>
	<path class="st1" d="M409.8,421.2v-20.9h4.8v20.9H409.8z M412.2,396.8c-0.9,0-1.6-0.2-2.1-0.7c-0.5-0.5-0.8-1.2-0.8-2.1
		c0-0.9,0.3-1.6,0.8-2.1c0.5-0.5,1.2-0.8,2.1-0.8c0.9,0,1.7,0.3,2.2,0.8c0.5,0.5,0.8,1.2,0.8,2.1c0,0.9-0.3,1.5-0.8,2.1
		C413.9,396.6,413.1,396.8,412.2,396.8L412.2,396.8z M412.2,396.8"/>
	<path class="st1" d="M435.4,420.4c-1.6,0.9-3.6,1.3-5.8,1.3c-3.2,0-5.7-0.9-7.4-2.8c-1.7-1.9-2.6-4.5-2.6-8c0-3.5,0.9-6.2,2.7-8.2
		c1.8-2,4.3-3,7.5-3c1.9,0,3.8,0.4,5.5,1.2v3.5c-1.8-0.5-3.4-0.8-4.7-0.8c-2.1,0-3.6,0.6-4.6,1.7c-1,1.1-1.5,2.9-1.5,5.2v0.5
		c0,2.3,0.5,4,1.5,5.1c1,1.1,2.5,1.6,4.6,1.6c1.4,0,3.1-0.3,4.8-0.8V420.4z M435.4,420.4"/>
	<path class="st1" d="M443.2,411.9c0.1,2.1,0.7,3.6,1.7,4.6c1.1,0.9,2.8,1.4,5,1.4c2.1,0,4.3-0.3,6.6-1.1v3.4
		c-0.9,0.5-2.1,0.9-3.3,1.2c-1.3,0.3-2.6,0.4-4,0.4c-3.4,0-6-0.9-7.8-2.8c-1.8-1.9-2.7-4.6-2.7-8.2c0-3.5,0.9-6.2,2.6-8.2
		c1.8-2,4.2-3,7.3-3c2.7,0,4.7,0.7,6.2,2.2c1.4,1.5,2.2,3.5,2.2,6.2c0,1.4-0.1,2.7-0.4,3.8H443.2z M448.4,403.2
		c-1.5,0-2.7,0.5-3.6,1.5c-0.9,1-1.5,2.3-1.6,4h9.5v-0.3c0-1.7-0.4-2.9-1.1-3.8C450.9,403.7,449.8,403.2,448.4,403.2L448.4,403.2z
		 M448.4,403.2"/>
	<path class="st1" d="M471.1,415.6c0-0.6-0.2-1.1-0.6-1.5c-0.4-0.4-1.1-0.8-2.1-1.2l-3.4-1.3c-3.1-1.2-4.6-3.1-4.6-5.8
		c0-1.9,0.7-3.4,2.1-4.5c1.5-1.1,3.4-1.7,5.7-1.7c2.3,0,4.4,0.4,6.2,1.3v3.4c-2.1-0.7-4-1-5.8-1c-1.2,0-2.2,0.2-2.8,0.6
		c-0.6,0.4-0.9,1-0.9,1.7c0,0.6,0.2,1.1,0.6,1.5c0.4,0.3,1.2,0.7,2.2,1.2l3.2,1.2c1.6,0.6,2.8,1.4,3.5,2.3c0.7,0.9,1.1,2,1.1,3.3
		c0,2.1-0.8,3.7-2.2,4.9c-1.5,1.2-3.5,1.8-6.2,1.8c-1.3,0-2.5-0.1-3.8-0.4c-1.2-0.3-2.3-0.6-3.2-1.2v-3.4c2.6,0.9,4.9,1.3,7,1.3
		c1.4,0,2.3-0.2,3-0.6C470.8,417.1,471.1,416.4,471.1,415.6L471.1,415.6z M471.1,415.6"/>
	<rect x="584.3" y="224" class="st2" width="10.3" height="10.3"/>
	<path class="st1" d="M618.1,232.7v11.8h-5.4v-31.3h11.6c3.1,0,5.6,0.9,7.4,2.6c1.8,1.8,2.8,4.2,2.8,7.1c0,3.1-0.9,5.4-2.8,7.2
		c-1.8,1.7-4.3,2.6-7.4,2.6H618.1z M618.1,228.5h5.6c1.8,0,3.1-0.5,4-1.4c0.9-0.9,1.3-2.3,1.3-4.1c0-1.8-0.4-3.2-1.3-4.1
		c-0.9-0.9-2.2-1.4-4-1.4h-5.6V228.5z M618.1,228.5"/>
	<path class="st1" d="M655.1,244.5l-0.5-2.5c-2.8,2.2-5.6,3.2-8.5,3.2c-2.1,0-3.8-0.6-4.9-1.8c-1.2-1.2-1.7-2.9-1.7-5.1v-16.8h5.3
		v15.1c0,1.5,0.3,2.6,0.9,3.3c0.6,0.7,1.6,1,2.9,1c1.9,0,3.8-0.6,5.6-1.9v-17.6h5.3v23H655.1z M655.1,244.5"/>
	<path class="st1" d="M666,244.5v-33.4h5.3v12.5c2.1-1.8,4.5-2.7,7.1-2.7c2.8,0,5.2,1.1,6.9,3.2c1.7,2.1,2.6,5.1,2.6,8.7
		c0,2.4-0.4,4.5-1.2,6.4c-0.8,1.8-1.9,3.3-3.4,4.4c-1.5,1.1-3.2,1.6-5.1,1.6c-1.4,0-2.7-0.2-3.9-0.7c-1.3-0.5-2.3-1.2-3.2-2.2
		l-0.5,2.4H666z M676.8,225.1c-2,0-3.8,0.6-5.4,1.7v12.3c1.7,1.2,3.5,1.7,5.4,1.7c1.9,0,3.3-0.6,4.2-1.9c0.9-1.3,1.4-3.3,1.4-6
		c0-2.7-0.5-4.6-1.4-5.8C680.1,225.7,678.7,225.1,676.8,225.1L676.8,225.1z M676.8,225.1"/>
	<path class="st1" d="M702.2,244.1c-1.1,0.4-2.3,0.6-3.6,0.6c-1.8,0-3.1-0.5-4-1.5c-0.9-1-1.3-2.5-1.3-4.4v-27.8h5.3v27.4
		c0,0.8,0.1,1.3,0.4,1.6c0.3,0.3,0.8,0.5,1.5,0.5c0.5,0,1.1,0,1.8-0.1V244.1z M702.2,244.1"/>
	<path class="st1" d="M707,244.5v-23h5.3v23H707z M709.6,217.7c-1,0-1.8-0.3-2.4-0.8c-0.6-0.5-0.8-1.3-0.8-2.2c0-1,0.3-1.7,0.8-2.2
		c0.6-0.5,1.4-0.8,2.4-0.8s1.8,0.3,2.3,0.8c0.6,0.5,0.9,1.3,0.9,2.2c0,0.9-0.3,1.7-0.9,2.2C711.4,217.5,710.6,217.7,709.6,217.7
		L709.6,217.7z M709.6,217.7"/>
	<path class="st1" d="M735.2,243.6c-1.8,0.9-3.9,1.4-6.4,1.4c-3.5,0-6.2-1-8.2-3.1c-1.9-2.1-2.8-5-2.8-8.7c0-3.9,1-6.8,3-9
		c2-2.1,4.7-3.2,8.2-3.2c2.2,0,4.2,0.4,6,1.3v3.7c-2-0.6-3.7-0.8-5.1-0.8c-2.3,0-4,0.6-5,1.9c-1.1,1.2-1.6,3.1-1.6,5.6v0.6
		c0,2.5,0.5,4.4,1.6,5.6c1.1,1.2,2.7,1.8,5,1.8c1.6,0,3.4-0.3,5.3-1V243.6z M735.2,243.6"/>
	<path class="st1" d="M758.3,230.1c-2.5-0.9-4.4-2.1-5.5-3.4c-1.1-1.4-1.7-3.1-1.7-5.1c0-2.8,1-5,3-6.6c2-1.7,4.6-2.5,8-2.5
		c2.8,0,5.6,0.6,8.5,1.6v4.4c-3-0.9-5.6-1.3-8-1.3c-4,0-6,1.3-6,4c0,1,0.4,1.9,1.1,2.6c0.7,0.6,2,1.3,3.9,1.9l3.9,1.4
		c2.5,0.9,4.3,2.1,5.5,3.4c1.2,1.3,1.7,3,1.7,5.1c0,3.1-1.1,5.4-3.2,7.2c-2.1,1.7-5.1,2.6-8.8,2.6c-1.6,0-3.2-0.2-4.8-0.5
		c-1.6-0.3-3-0.7-4.2-1.3v-4.4c1.4,0.5,3,0.8,4.6,1.1c1.6,0.3,3.1,0.4,4.4,0.4c2.1,0,3.7-0.3,4.9-1.1c1.2-0.8,1.7-1.9,1.7-3.3
		c0-1-0.3-1.9-1-2.5c-0.7-0.7-1.9-1.4-3.7-2.1L758.3,230.1z M758.3,230.1"/>
	<path class="st1" d="M781.6,234.3c0.1,2.3,0.7,3.9,1.9,5c1.2,1.1,3,1.6,5.5,1.6c2.2,0,4.6-0.4,7.2-1.2v3.7c-1,0.6-2.3,1-3.7,1.3
		c-1.4,0.3-2.8,0.5-4.3,0.5c-3.8,0-6.7-1-8.7-3.1c-2-2.1-3-5-3-9c0-3.9,1-6.9,2.9-9.1c1.9-2.2,4.6-3.3,8-3.3c3,0,5.2,0.8,6.8,2.4
		c1.6,1.6,2.4,3.9,2.4,6.8c0,1.6-0.1,3-0.4,4.2H781.6z M787.4,224.7c-1.6,0-3,0.5-4,1.6c-1,1.1-1.6,2.5-1.8,4.4h10.5v-0.3
		c0-1.8-0.4-3.2-1.2-4.2C790.1,225.2,788.9,224.7,787.4,224.7L787.4,224.7z M787.4,224.7"/>
	<path class="st1" d="M818.2,243.6c-1.8,0.9-3.9,1.4-6.4,1.4c-3.5,0-6.2-1-8.2-3.1c-1.9-2.1-2.8-5-2.8-8.7c0-3.9,1-6.8,3-9
		c1.9-2.1,4.7-3.2,8.2-3.2c2.2,0,4.2,0.4,6,1.3v3.7c-2-0.6-3.7-0.8-5.1-0.8c-2.3,0-4,0.6-5,1.9c-1.1,1.2-1.6,3.1-1.6,5.6v0.6
		c0,2.5,0.5,4.4,1.6,5.6c1,1.2,2.7,1.8,5,1.8c1.6,0,3.4-0.3,5.3-1V243.6z M818.2,243.6"/>
	<path class="st1" d="M836.3,244c-1.6,0.6-3.3,0.8-5.1,0.8c-2.4,0-4.2-0.5-5.3-1.7c-1.1-1.1-1.7-2.8-1.7-5.1v-12.5h-3.9v-3.3
		l4.1-0.6l0.8-6.5h4.4v6.4h6.5v4h-6.5v12.2c0,1,0.2,1.8,0.7,2.2c0.5,0.4,1.3,0.6,2.5,0.6c1.3,0,2.5-0.1,3.5-0.3V244z M836.3,244"/>
	<path class="st1" d="M850.5,245.2c-3.5,0-6.3-1-8.2-3.2c-2-2.2-3-5.2-3-9.1c0-3.8,1-6.8,3-8.9c1.9-2.1,4.7-3.2,8.2-3.2
		c3.5,0,6.2,1.1,8.2,3.2c2,2.1,3,5.1,3,8.9c0,3.9-1,6.9-3,9.1C856.7,244.2,854,245.2,850.5,245.2L850.5,245.2z M850.5,241
		c3.7,0,5.6-2.7,5.6-8c0-5.3-1.9-7.9-5.6-7.9c-3.8,0-5.7,2.6-5.7,7.9C844.8,238.3,846.7,241,850.5,241L850.5,241z M850.5,241"/>
	<path class="st1" d="M867,244.5v-23h4.4l0.7,3.4c1.2-1.3,2.3-2.2,3.3-2.8c1.1-0.5,2.2-0.8,3.5-0.8c0.6,0,1.2,0,1.9,0.1v4.9
		c-0.9-0.2-1.7-0.3-2.6-0.3c-2.2,0-4.2,0.6-5.9,1.7v16.7H867z M867,244.5"/>
	<rect x="584.3" y="285.6" class="st2" width="10.3" height="10.3"/>
	<rect x="612.9" y="274.8" class="st1" width="5.5" height="31.3"/>
	<path class="st1" d="M654.6,306.2v-15.6c0-1.4-0.3-2.4-0.8-3c-0.5-0.6-1.4-0.9-2.6-0.9c-0.9,0-1.9,0.2-3,0.4c-1,0.3-2,0.7-2.8,1.2
		v17.8h-5.3v-15.6c0-1.4-0.3-2.4-0.8-3c-0.5-0.6-1.4-0.9-2.6-0.9c-0.9,0-1.8,0.2-2.8,0.4c-1,0.3-2,0.7-2.9,1.2v17.8h-5.3v-23h4.4
		l0.4,2.3c1.5-1,3-1.8,4.3-2.3c1.3-0.5,2.7-0.8,4-0.8c2.8,0,4.7,1.1,5.8,3.1c3-2.1,5.9-3.1,8.7-3.1c2.1,0,3.8,0.6,4.9,1.7
		c1.2,1.2,1.8,2.8,1.8,5.1v16.9H654.6z M654.6,306.2"/>
	<path class="st1" d="M695.4,306.2v-15.6c0-1.4-0.3-2.4-0.8-3c-0.5-0.6-1.4-0.9-2.6-0.9c-0.9,0-1.9,0.2-3,0.4c-1,0.3-2,0.7-2.8,1.2
		v17.8h-5.3v-15.6c0-1.4-0.3-2.4-0.8-3c-0.5-0.6-1.4-0.9-2.6-0.9c-0.9,0-1.8,0.2-2.8,0.4c-1,0.3-2,0.7-2.9,1.2v17.8h-5.3v-23h4.4
		l0.4,2.3c1.5-1,3-1.8,4.3-2.3c1.3-0.5,2.7-0.8,4-0.8c2.8,0,4.7,1.1,5.8,3.1c3-2.1,5.9-3.1,8.7-3.1c2.1,0,3.8,0.6,4.9,1.7
		c1.2,1.2,1.8,2.8,1.8,5.1v16.9H695.4z M695.4,306.2"/>
	<path class="st1" d="M710.9,295.9c0.1,2.3,0.7,3.9,1.9,5c1.2,1.1,3,1.6,5.5,1.6c2.2,0,4.6-0.4,7.2-1.2v3.7c-1,0.6-2.2,1-3.7,1.3
		c-1.4,0.3-2.8,0.5-4.3,0.5c-3.8,0-6.7-1-8.7-3.1c-2-2.1-3-5-3-9c0-3.9,1-6.9,2.9-9.1c1.9-2.2,4.6-3.3,8-3.3c3,0,5.2,0.8,6.8,2.4
		c1.6,1.6,2.4,3.9,2.4,6.8c0,1.6-0.1,3-0.4,4.2H710.9z M716.7,286.4c-1.6,0-3,0.5-4,1.6c-1,1.1-1.6,2.5-1.8,4.4h10.5V292
		c0-1.8-0.4-3.2-1.2-4.2C719.3,286.9,718.2,286.4,716.7,286.4L716.7,286.4z M716.7,286.4"/>
	<path class="st1" d="M731.3,306.2v-23h4.4l0.7,3.4c1.2-1.3,2.3-2.2,3.3-2.8c1.1-0.5,2.2-0.8,3.5-0.8c0.6,0,1.2,0,1.9,0.1v4.9
		c-0.9-0.2-1.7-0.3-2.6-0.3c-2.2,0-4.2,0.6-5.9,1.7v16.7H731.3z M731.3,306.2"/>
	<path class="st1" d="M759.1,299.9c0-0.7-0.2-1.2-0.6-1.6c-0.4-0.4-1.2-0.9-2.4-1.3l-3.7-1.4c-3.4-1.3-5.1-3.4-5.1-6.4
		c0-2.1,0.8-3.7,2.3-4.9c1.6-1.2,3.7-1.9,6.3-1.9c2.5,0,4.8,0.5,6.8,1.5v3.7c-2.4-0.8-4.5-1.2-6.5-1.2c-1.4,0-2.4,0.2-3,0.6
		c-0.6,0.4-1,1-1,1.9c0,0.6,0.2,1.2,0.6,1.6c0.5,0.4,1.3,0.8,2.6,1.3l3.5,1.3c1.8,0.7,3.1,1.5,3.9,2.5c0.8,0.9,1.2,2.2,1.2,3.7
		c0,2.2-0.8,4-2.4,5.3c-1.6,1.3-3.9,2-6.7,2c-1.4,0-2.8-0.2-4.2-0.5c-1.4-0.3-2.6-0.7-3.6-1.2v-3.8c2.9,0.9,5.5,1.4,7.7,1.4
		c1.5,0,2.6-0.2,3.3-0.7C758.7,301.6,759.1,300.9,759.1,299.9L759.1,299.9z M759.1,299.9"/>
	<path class="st1" d="M768.7,306.2v-23h5.3v23H768.7z M771.3,279.4c-1,0-1.8-0.3-2.4-0.8c-0.6-0.5-0.8-1.3-0.8-2.2
		c0-1,0.3-1.7,0.8-2.2c0.6-0.5,1.4-0.8,2.4-0.8c1,0,1.8,0.3,2.3,0.8c0.6,0.5,0.9,1.3,0.9,2.2c0,0.9-0.3,1.7-0.9,2.2
		C773,279.1,772.3,279.4,771.3,279.4L771.3,279.4z M771.3,279.4"/>
	<path class="st1" d="M790.6,306.9c-3.5,0-6.3-1-8.2-3.2c-2-2.2-3-5.2-3-9.1c0-3.8,1-6.8,3-8.9c2-2.1,4.7-3.2,8.2-3.2
		c3.5,0,6.2,1.1,8.2,3.2c2,2.1,3,5.1,3,8.9c0,3.9-1,6.9-3,9.1C796.8,305.8,794.1,306.9,790.6,306.9L790.6,306.9z M790.6,302.6
		c3.7,0,5.7-2.7,5.7-8c0-5.3-1.9-7.9-5.7-7.9c-3.8,0-5.7,2.6-5.7,7.9C784.9,300,786.8,302.6,790.6,302.6L790.6,302.6z M790.6,302.6"
		/>
	<path class="st1" d="M822.3,306.2v-15.2c0-1.5-0.3-2.6-0.9-3.2c-0.6-0.7-1.6-1-2.9-1c-2,0-4,0.7-6.1,2v17.5h-5.3v-23h4.4l0.5,2.5
		c2.8-2.1,5.8-3.2,8.9-3.2c2.2,0,3.9,0.6,5,1.7c1.2,1.2,1.7,2.8,1.7,5.1v16.9H822.3z M822.3,306.2"/>
	<path class="st1" d="M846.3,306.2v-31.3H857c4.6,0,8.2,1.3,10.6,4c2.5,2.7,3.7,6.5,3.7,11.6c0,5.1-1.3,8.9-3.7,11.7
		c-2.5,2.7-6,4-10.7,4H846.3z M851.8,279.2v22.6h4.6c6.2,0,9.3-3.6,9.3-10.8v-1c0-7.2-3.1-10.8-9.3-10.8H851.8z M851.8,279.2"/>
	<path class="st1" d="M890.3,306.2l-0.4-2.2c-1.1,0.9-2.2,1.6-3.5,2.1c-1.3,0.5-2.5,0.8-3.8,0.8c-2.1,0-3.9-0.6-5.2-1.9
		c-1.3-1.3-1.9-2.9-1.9-4.9c0-2.2,0.8-4,2.4-5.3c1.6-1.3,3.8-2,6.6-2c1.6,0,3.3,0.2,5.3,0.7v-2.7c0-1.5-0.3-2.6-1-3.2
		c-0.6-0.6-1.8-0.9-3.5-0.9c-2.4,0-5.1,0.5-8.1,1.5v-3.7c1.1-0.5,2.5-1,4-1.3c1.6-0.3,3.2-0.5,4.9-0.5c3,0,5.1,0.6,6.6,1.8
		c1.4,1.2,2.1,3.1,2.1,5.6v16.2H890.3z M884.1,303c0.9,0,1.8-0.2,2.7-0.5c1-0.4,2-0.9,2.9-1.6v-4.4c-1.6-0.3-3.1-0.5-4.3-0.5
		c-3.1,0-4.7,1.2-4.7,3.7c0,1.1,0.3,1.9,0.9,2.5C882.2,302.7,883,303,884.1,303L884.1,303z M884.1,303"/>
	<path class="st1" d="M907.1,306.4l-9-23.2h5.7l5.8,18.2l6-18.2h5.5l-10.3,26.6c-0.8,2.2-1.8,3.7-3,4.7c-1.2,1-2.7,1.5-4.5,1.5
		c-1.3,0-2.6-0.2-3.8-0.6v-3.7c0.7,0.2,1.5,0.3,2.3,0.3c1.3,0,2.2-0.2,2.9-0.7c0.6-0.5,1.2-1.5,1.9-3.1L907.1,306.4z M907.1,306.4"
		/>
	<rect x="584.3" y="347.2" class="st2" width="10.3" height="10.3"/>
	<path class="st1" d="M632.2,367.8l-2.6-7.8h-12l-2.6,7.8h-5.7l11.4-31.3h6l11.4,31.3H632.2z M618.9,355.9h9.4l-4.8-14.4
		L618.9,355.9z M618.9,355.9"/>
	<path class="st1" d="M665.1,367.8l-5.6-23.6l-5.5,23.6H648l-8.9-31.3h6l6,25.4l5.6-24.5h5.9l5.6,24.4l6-25.3h5.8l-8.9,31.3H665.1z
		 M665.1,367.8"/>
	<path class="st1" d="M690.5,353.3c-2.5-0.9-4.4-2.1-5.5-3.4c-1.1-1.4-1.7-3.1-1.7-5.1c0-2.8,1-5,3-6.6c2-1.7,4.6-2.5,8-2.5
		c2.8,0,5.6,0.6,8.5,1.6v4.4c-3-0.9-5.6-1.3-8-1.3c-4,0-6,1.3-6,4c0,1,0.4,1.9,1.1,2.6c0.7,0.6,2,1.3,3.9,1.9l3.9,1.4
		c2.5,0.9,4.3,2.1,5.5,3.4c1.2,1.3,1.7,3,1.7,5.1c0,3.1-1.1,5.4-3.2,7.2c-2.1,1.7-5.1,2.6-8.8,2.6c-1.6,0-3.2-0.2-4.8-0.5
		c-1.6-0.3-3-0.7-4.2-1.3v-4.4c1.4,0.5,3,0.8,4.6,1.1c1.6,0.3,3.1,0.4,4.4,0.4c2.1,0,3.7-0.3,4.9-1.1c1.2-0.8,1.7-1.9,1.7-3.3
		c0-1-0.3-1.9-1-2.5c-0.7-0.7-1.9-1.4-3.7-2.1L690.5,353.3z M690.5,353.3"/>
	<path class="st1" d="M722.4,367.8v-31.3h5.5v26.8h14.4v4.5H722.4z M722.4,367.8"/>
	<path class="st1" d="M759.3,367.8l-0.4-2.2c-1.1,0.9-2.2,1.6-3.5,2.1c-1.3,0.5-2.5,0.8-3.8,0.8c-2.1,0-3.9-0.6-5.2-1.9
		c-1.3-1.3-1.9-2.9-1.9-4.9c0-2.2,0.8-4,2.4-5.3c1.6-1.3,3.8-2,6.5-2c1.6,0,3.3,0.2,5.3,0.7v-2.7c0-1.5-0.3-2.6-1-3.2
		c-0.6-0.6-1.8-0.9-3.5-0.9c-2.4,0-5.1,0.5-8.1,1.5V346c1.1-0.5,2.5-1,4-1.3c1.6-0.3,3.2-0.5,4.9-0.5c3,0,5.1,0.6,6.5,1.8
		c1.4,1.2,2.1,3.1,2.1,5.6v16.2H759.3z M753.1,364.6c0.9,0,1.8-0.2,2.7-0.5c1-0.4,1.9-0.9,2.9-1.6v-4.4c-1.6-0.3-3.1-0.5-4.3-0.5
		c-3.1,0-4.7,1.2-4.7,3.7c0,1.1,0.3,1.9,0.9,2.5C751.2,364.4,752,364.6,753.1,364.6L753.1,364.6z M753.1,364.6"/>
	<path class="st1" d="M799.2,367.8v-15.6c0-1.4-0.3-2.4-0.8-3c-0.5-0.6-1.4-0.9-2.6-0.9c-0.9,0-1.9,0.2-3,0.4c-1,0.3-2,0.7-2.8,1.2
		v17.8h-5.3v-15.6c0-1.4-0.3-2.4-0.8-3c-0.5-0.6-1.4-0.9-2.6-0.9c-0.9,0-1.8,0.2-2.8,0.4c-1,0.3-2,0.7-2.9,1.2v17.8h-5.3v-23h4.4
		l0.4,2.3c1.5-1,3-1.8,4.3-2.3c1.3-0.5,2.7-0.8,4-0.8c2.8,0,4.7,1.1,5.8,3.1c3-2.1,5.9-3.1,8.7-3.1c2.1,0,3.8,0.6,4.9,1.7
		c1.2,1.2,1.8,2.8,1.8,5.1v16.9H799.2z M799.2,367.8"/>
	<path class="st1" d="M810.9,367.8v-33.4h5.3v12.5c2.1-1.8,4.5-2.7,7.1-2.7c2.8,0,5.2,1.1,6.9,3.2c1.7,2.1,2.6,5.1,2.6,8.7
		c0,2.4-0.4,4.5-1.2,6.4c-0.8,1.8-1.9,3.3-3.4,4.4c-1.5,1.1-3.2,1.6-5.1,1.6c-1.4,0-2.7-0.2-3.9-0.7c-1.3-0.5-2.3-1.2-3.2-2.2
		l-0.5,2.4H810.9z M821.6,348.3c-2,0-3.8,0.6-5.4,1.7v12.3c1.7,1.2,3.5,1.7,5.4,1.7c1.9,0,3.3-0.6,4.2-1.9c0.9-1.3,1.4-3.3,1.4-6
		c0-2.7-0.5-4.6-1.4-5.8C825,349,823.6,348.3,821.6,348.3L821.6,348.3z M821.6,348.3"/>
	<path class="st1" d="M854.1,367.8l-0.6-2.2c-2,1.8-4.4,2.7-7.1,2.7c-2.9,0-5.2-1.1-7-3.2c-1.7-2.2-2.6-5.1-2.6-8.7
		c0-2.4,0.4-4.5,1.2-6.4c0.8-1.8,1.9-3.3,3.4-4.3c1.5-1.1,3.3-1.6,5.3-1.6c2.4,0,4.6,0.8,6.6,2.4v-12.1h5.3v33.4H854.1z
		 M848.1,364.1c1.8,0,3.5-0.5,5.2-1.7v-12.5c-1.5-1-3.3-1.6-5.1-1.6c-2,0-3.5,0.6-4.4,1.9c-0.9,1.2-1.4,3.2-1.4,5.8
		C842.3,361.4,844.3,364.1,848.1,364.1L848.1,364.1z M848.1,364.1"/>
	<path class="st1" d="M878.5,367.8l-0.4-2.2c-1.1,0.9-2.2,1.6-3.5,2.1c-1.3,0.5-2.5,0.8-3.8,0.8c-2.1,0-3.9-0.6-5.2-1.9
		c-1.3-1.3-1.9-2.9-1.9-4.9c0-2.2,0.8-4,2.4-5.3c1.6-1.3,3.8-2,6.5-2c1.6,0,3.3,0.2,5.3,0.7v-2.7c0-1.5-0.3-2.6-1-3.2
		c-0.6-0.6-1.8-0.9-3.5-0.9c-2.4,0-5.1,0.5-8.1,1.5V346c1.1-0.5,2.5-1,4-1.3c1.6-0.3,3.2-0.5,4.9-0.5c3,0,5.1,0.6,6.5,1.8
		c1.4,1.2,2.1,3.1,2.1,5.6v16.2H878.5z M872.3,364.6c0.9,0,1.8-0.2,2.7-0.5c1-0.4,1.9-0.9,2.9-1.6v-4.4c-1.6-0.3-3.1-0.5-4.3-0.5
		c-3.1,0-4.7,1.2-4.7,3.7c0,1.1,0.3,1.9,0.9,2.5C870.4,364.4,871.2,364.6,872.3,364.6L872.3,364.6z M872.3,364.6"/>
	<path class="st1" d="M901.5,367.8v-31.3h10.7c4.6,0,8.2,1.3,10.6,4c2.5,2.7,3.7,6.5,3.7,11.6c0,5.1-1.3,8.9-3.7,11.7
		c-2.5,2.7-6,4-10.7,4H901.5z M907.1,340.8v22.6h4.6c6.2,0,9.3-3.6,9.3-10.8v-1c0-7.2-3.1-10.8-9.3-10.8H907.1z M907.1,340.8"/>
	<path class="st1" d="M935.9,357.6c0.1,2.3,0.7,3.9,1.9,5c1.2,1.1,3,1.6,5.5,1.6c2.2,0,4.6-0.4,7.2-1.2v3.7c-1,0.6-2.2,1-3.7,1.3
		c-1.4,0.3-2.8,0.5-4.3,0.5c-3.8,0-6.7-1-8.7-3.1c-2-2.1-3-5-3-9c0-3.9,1-6.9,2.9-9.1c1.9-2.2,4.6-3.3,8-3.3c3,0,5.2,0.8,6.8,2.4
		c1.6,1.6,2.4,3.9,2.4,6.8c0,1.6-0.1,3-0.4,4.2H935.9z M941.7,348c-1.6,0-3,0.5-4,1.6c-1,1.1-1.6,2.5-1.8,4.4h10.5v-0.3
		c0-1.8-0.4-3.2-1.2-4.2C944.4,348.5,943.2,348,941.7,348L941.7,348z M941.7,348"/>
	<path class="st1" d="M965.3,367.4c-1.1,0.4-2.3,0.6-3.6,0.6c-1.8,0-3.1-0.5-4-1.5c-0.9-1-1.3-2.5-1.3-4.4v-27.8h5.3v27.4
		c0,0.8,0.1,1.3,0.4,1.6c0.3,0.3,0.8,0.5,1.5,0.5c0.5,0,1.1,0,1.8-0.1V367.4z M965.3,367.4"/>
	<path class="st1" d="M970.1,367.8v-23h5.3v23H970.1z M972.7,341c-1,0-1.8-0.3-2.4-0.8c-0.6-0.5-0.8-1.3-0.8-2.2
		c0-1,0.3-1.7,0.8-2.2c0.6-0.5,1.4-0.8,2.4-0.8c1,0,1.8,0.3,2.3,0.8c0.6,0.5,0.9,1.3,0.9,2.2c0,0.9-0.3,1.7-0.9,2.2
		C974.5,340.7,973.7,341,972.7,341L972.7,341z M972.7,341"/>
	<path class="st1" d="M988.1,367.8l-8.9-23h5.7l5.8,18.2l6-18.2h5.5l-8.9,23H988.1z M988.1,367.8"/>
	<path class="st1" d="M1009.4,357.6c0.1,2.3,0.7,3.9,1.9,5c1.2,1.1,3,1.6,5.5,1.6c2.2,0,4.6-0.4,7.2-1.2v3.7c-1,0.6-2.2,1-3.7,1.3
		c-1.4,0.3-2.8,0.5-4.3,0.5c-3.8,0-6.7-1-8.7-3.1c-2-2.1-3-5-3-9c0-3.9,1-6.9,2.9-9.1c1.9-2.2,4.6-3.3,8-3.3c3,0,5.2,0.8,6.8,2.4
		c1.6,1.6,2.4,3.9,2.4,6.8c0,1.6-0.1,3-0.4,4.2H1009.4z M1015.2,348c-1.6,0-3,0.5-4,1.6c-1,1.1-1.6,2.5-1.8,4.4h10.5v-0.3
		c0-1.8-0.4-3.2-1.2-4.2C1017.8,348.5,1016.7,348,1015.2,348L1015.2,348z M1015.2,348"/>
	<path class="st1" d="M1029.7,367.8v-23h4.4l0.7,3.4c1.2-1.3,2.3-2.2,3.3-2.8c1.1-0.5,2.2-0.8,3.5-0.8c0.6,0,1.2,0,1.9,0.1v4.9
		c-0.9-0.2-1.7-0.3-2.6-0.3c-2.2,0-4.2,0.6-5.9,1.7v16.7H1029.7z M1029.7,367.8"/>
	<path class="st1" d="M1053.2,368.1l-9-23.2h5.7l5.8,18.2l6-18.2h5.5l-10.3,26.6c-0.8,2.2-1.8,3.7-3,4.7c-1.2,1-2.7,1.5-4.5,1.5
		c-1.3,0-2.6-0.2-3.8-0.6v-3.7c0.7,0.2,1.5,0.3,2.3,0.3c1.3,0,2.3-0.2,2.9-0.7c0.6-0.5,1.2-1.5,1.9-3.1L1053.2,368.1z M1053.2,368.1
		"/>
	<rect x="584.3" y="408.9" class="st2" width="10.3" height="10.3"/>
	<path class="st1" d="M632.2,429.4l-2.6-7.8h-12l-2.6,7.8h-5.7l11.4-31.3h6l11.4,31.3H632.2z M618.9,417.6h9.4l-4.8-14.4
		L618.9,417.6z M618.9,417.6"/>
	<path class="st1" d="M670.8,429.4v-15.6c0-1.4-0.3-2.4-0.8-3c-0.5-0.6-1.4-0.9-2.6-0.9c-0.9,0-2,0.2-3,0.4c-1,0.3-2,0.7-2.8,1.2
		v17.8h-5.3v-15.6c0-1.4-0.3-2.4-0.8-3c-0.5-0.6-1.4-0.9-2.6-0.9c-0.9,0-1.8,0.2-2.8,0.4c-1,0.3-2,0.7-2.9,1.2v17.8h-5.3v-23h4.4
		l0.4,2.3c1.5-1,3-1.8,4.3-2.3c1.3-0.5,2.7-0.8,4-0.8c2.8,0,4.7,1.1,5.8,3.1c3-2.1,5.9-3.1,8.7-3.1c2.1,0,3.8,0.6,4.9,1.7
		c1.2,1.2,1.8,2.8,1.8,5.1v16.9H670.8z M670.8,429.4"/>
	<path class="st1" d="M695.8,429.4l-0.4-2.2c-1.1,0.9-2.2,1.6-3.5,2.1c-1.3,0.5-2.5,0.8-3.8,0.8c-2.1,0-3.9-0.6-5.2-1.9
		c-1.3-1.3-1.9-2.9-1.9-4.9c0-2.2,0.8-4,2.4-5.3c1.6-1.3,3.8-2,6.5-2c1.6,0,3.3,0.2,5.3,0.7V414c0-1.5-0.3-2.6-1-3.2
		c-0.6-0.6-1.8-0.9-3.5-0.9c-2.4,0-5.1,0.5-8.1,1.5v-3.7c1.1-0.5,2.5-1,4-1.3c1.6-0.3,3.2-0.5,4.9-0.5c3,0,5.1,0.6,6.6,1.8
		c1.4,1.2,2.1,3.1,2.1,5.6v16.2H695.8z M689.6,426.3c0.9,0,1.8-0.2,2.7-0.5c1-0.4,1.9-0.9,2.9-1.6v-4.4c-1.6-0.3-3.1-0.5-4.3-0.5
		c-3.1,0-4.7,1.2-4.7,3.7c0,1.1,0.3,1.9,0.9,2.5C687.7,426,688.5,426.3,689.6,426.3L689.6,426.3z M689.6,426.3"/>
	<path class="st1" d="M704.9,429.4v-3.9l12.8-15h-12.4v-4h18.1v3.9l-12.8,15h13v4H704.9z M704.9,429.4"/>
	<path class="st1" d="M738.3,430.1c-3.5,0-6.3-1-8.2-3.2c-2-2.2-3-5.2-3-9.1c0-3.8,1-6.8,3-8.9c2-2.1,4.7-3.2,8.2-3.2
		c3.5,0,6.2,1.1,8.2,3.2c2,2.1,3,5.1,3,8.9c0,3.9-1,6.9-3,9.1C744.5,429.1,741.8,430.1,738.3,430.1L738.3,430.1z M738.3,425.9
		c3.7,0,5.7-2.7,5.7-8c0-5.3-1.9-7.9-5.7-7.9c-3.8,0-5.7,2.6-5.7,7.9C732.6,423.2,734.5,425.9,738.3,425.9L738.3,425.9z
		 M738.3,425.9"/>
	<path class="st1" d="M770,429.4v-15.2c0-1.5-0.3-2.6-0.9-3.2c-0.6-0.7-1.6-1-2.9-1c-2,0-4,0.7-6.1,2v17.5h-5.3v-23h4.4l0.5,2.5
		c2.8-2.1,5.8-3.2,8.9-3.2c2.2,0,3.9,0.6,5,1.7c1.2,1.2,1.7,2.8,1.7,5.1v16.9H770z M770,429.4"/>
	<path class="st1" d="M794,429.4v-31.3h11.7c3.1,0,5.5,0.8,7.4,2.5c1.8,1.7,2.8,3.9,2.8,6.7c0,2.1-0.5,3.8-1.5,5.3
		c-1,1.5-2.5,2.6-4.6,3.4l8.1,13.4H812l-7.3-12.5h-5.3v12.5H794z M799.4,412.7h5.6c3.6,0,5.4-1.7,5.4-5.2c0-3.5-1.8-5.2-5.3-5.2
		h-5.8V412.7z M799.4,412.7"/>
	<path class="st1" d="M822.1,429.4v-31.3h10.7c4.6,0,8.2,1.3,10.6,4c2.5,2.7,3.7,6.5,3.7,11.6c0,5.1-1.3,8.9-3.7,11.7
		c-2.5,2.7-6,4-10.7,4H822.1z M827.6,402.5v22.6h4.6c6.2,0,9.3-3.6,9.3-10.8v-1c0-7.2-3.1-10.8-9.3-10.8H827.6z M827.6,402.5"/>
	<path class="st1" d="M859.2,415c-2.5-0.9-4.4-2.1-5.5-3.4c-1.1-1.4-1.7-3.1-1.7-5.1c0-2.8,1-5,3-6.6c2-1.7,4.6-2.5,8-2.5
		c2.8,0,5.6,0.6,8.5,1.6v4.4c-3-0.9-5.6-1.3-8-1.3c-4,0-6,1.3-6,4c0,1,0.4,1.9,1.1,2.6c0.7,0.6,2,1.3,3.9,1.9l3.9,1.4
		c2.5,0.9,4.3,2.1,5.5,3.4c1.2,1.3,1.7,3,1.7,5.1c0,3.1-1.1,5.4-3.2,7.2c-2.1,1.7-5.1,2.6-8.8,2.6c-1.6,0-3.2-0.2-4.8-0.5
		c-1.6-0.3-3-0.7-4.2-1.3V424c1.4,0.5,3,0.8,4.6,1.1c1.6,0.3,3.1,0.4,4.4,0.4c2.1,0,3.7-0.3,4.9-1.1c1.2-0.8,1.7-1.9,1.7-3.3
		c0-1-0.3-1.9-1-2.5c-0.7-0.7-1.9-1.4-3.7-2.1L859.2,415z M859.2,415"/>
	<path class="st1" d="M891.1,429.4v-31.3h10.7c4.6,0,8.2,1.3,10.6,4c2.5,2.7,3.7,6.5,3.7,11.6c0,5.1-1.3,8.9-3.7,11.7
		c-2.5,2.7-6,4-10.7,4H891.1z M896.7,402.5v22.6h4.6c6.2,0,9.3-3.6,9.3-10.8v-1c0-7.2-3.1-10.8-9.3-10.8H896.7z M896.7,402.5"/>
	<path class="st1" d="M925.5,419.2c0.1,2.3,0.7,3.9,1.9,5c1.2,1.1,3,1.6,5.5,1.6c2.2,0,4.6-0.4,7.2-1.2v3.7c-1,0.6-2.2,1-3.7,1.3
		c-1.4,0.3-2.8,0.5-4.3,0.5c-3.8,0-6.7-1-8.7-3.1c-2-2.1-3-5-3-9c0-3.9,1-6.9,2.9-9.1c1.9-2.2,4.6-3.3,8-3.3c3,0,5.2,0.8,6.8,2.4
		c1.6,1.6,2.4,3.9,2.4,6.8c0,1.6-0.1,3-0.4,4.2H925.5z M931.3,409.7c-1.6,0-3,0.5-4,1.6c-1,1.1-1.6,2.5-1.8,4.4H936v-0.3
		c0-1.8-0.4-3.2-1.2-4.2C933.9,410.1,932.8,409.7,931.3,409.7L931.3,409.7z M931.3,409.7"/>
	<path class="st1" d="M954.9,429c-1.1,0.4-2.3,0.6-3.6,0.6c-1.8,0-3.1-0.5-4-1.5c-0.9-1-1.3-2.5-1.3-4.4V396h5.3v27.4
		c0,0.8,0.1,1.3,0.4,1.6c0.3,0.3,0.8,0.5,1.5,0.5c0.5,0,1.1,0,1.8-0.1V429z M954.9,429"/>
	<path class="st1" d="M959.7,429.4v-23h5.3v23H959.7z M962.3,402.7c-1,0-1.8-0.3-2.4-0.8c-0.6-0.5-0.8-1.3-0.8-2.2
		c0-1,0.3-1.7,0.8-2.2c0.6-0.5,1.4-0.8,2.4-0.8c1,0,1.8,0.3,2.3,0.8c0.6,0.5,0.9,1.3,0.9,2.2c0,0.9-0.3,1.7-0.9,2.2
		C964.1,402.4,963.3,402.7,962.3,402.7L962.3,402.7z M962.3,402.7"/>
	<path class="st1" d="M977.7,429.4l-8.9-23h5.7l5.8,18.2l6-18.2h5.5l-8.9,23H977.7z M977.7,429.4"/>
	<path class="st1" d="M999,419.2c0.1,2.3,0.7,3.9,1.9,5c1.2,1.1,3,1.6,5.5,1.6c2.2,0,4.6-0.4,7.2-1.2v3.7c-1,0.6-2.3,1-3.7,1.3
		c-1.4,0.3-2.8,0.5-4.3,0.5c-3.8,0-6.7-1-8.7-3.1c-2-2.1-3-5-3-9c0-3.9,1-6.9,2.9-9.1c1.9-2.2,4.6-3.3,8-3.3c3,0,5.2,0.8,6.8,2.4
		c1.6,1.6,2.4,3.9,2.4,6.8c0,1.6-0.1,3-0.4,4.2H999z M1004.8,409.7c-1.6,0-3,0.5-4,1.6c-1,1.1-1.6,2.5-1.8,4.4h10.5v-0.3
		c0-1.8-0.4-3.2-1.2-4.2C1007.4,410.1,1006.3,409.7,1004.8,409.7L1004.8,409.7z M1004.8,409.7"/>
	<path class="st1" d="M1019.3,429.4v-23h4.4l0.7,3.4c1.2-1.3,2.3-2.2,3.3-2.8c1.1-0.5,2.2-0.8,3.5-0.8c0.6,0,1.2,0,1.9,0.1v4.9
		c-0.9-0.2-1.7-0.3-2.6-0.3c-2.2,0-4.2,0.6-5.9,1.7v16.7H1019.3z M1019.3,429.4"/>
	<path class="st1" d="M1042.8,429.7l-9-23.2h5.7l5.8,18.2l6-18.2h5.5l-10.3,26.6c-0.8,2.2-1.8,3.7-3,4.7c-1.2,1-2.7,1.5-4.5,1.5
		c-1.3,0-2.6-0.2-3.8-0.6v-3.7c0.7,0.2,1.5,0.3,2.3,0.3c1.3,0,2.2-0.2,2.9-0.7c0.6-0.5,1.2-1.5,1.9-3.1L1042.8,429.7z M1042.8,429.7
		"/>
	<rect x="1134.4" y="224" class="st2" width="10.3" height="10.3"/>
	<path class="st1" d="M1162.8,244.5v-31.3h19.9v4.4h-14.4v8.6h11.9v4.4h-11.9v9.4h14.4v4.4H1162.8z M1162.8,244.5"/>
	<path class="st1" d="M1203.9,244.5l-0.6-2.2c-2,1.8-4.4,2.7-7.1,2.7c-2.9,0-5.2-1.1-7-3.2c-1.7-2.2-2.6-5.1-2.6-8.7
		c0-2.4,0.4-4.5,1.2-6.4c0.8-1.8,1.9-3.3,3.4-4.3c1.5-1.1,3.2-1.6,5.3-1.6c2.4,0,4.6,0.8,6.6,2.4v-12.1h5.3v33.4H1203.9z
		 M1198,240.8c1.8,0,3.5-0.5,5.2-1.7v-12.5c-1.5-1-3.3-1.6-5.1-1.6c-2,0-3.5,0.6-4.4,1.9c-0.9,1.2-1.4,3.2-1.4,5.8
		C1192.2,238.1,1194.1,240.8,1198,240.8L1198,240.8z M1198,240.8"/>
	<path class="st1" d="M1230.4,244.5l-0.5-2.5c-2.8,2.2-5.7,3.2-8.5,3.2c-2.1,0-3.8-0.6-4.9-1.8c-1.2-1.2-1.7-2.9-1.7-5.1v-16.8h5.3
		v15.1c0,1.5,0.3,2.6,0.9,3.3c0.6,0.7,1.6,1,2.9,1c1.9,0,3.8-0.6,5.6-1.9v-17.6h5.3v23H1230.4z M1230.4,244.5"/>
	<path class="st1" d="M1257.6,243.6c-1.8,0.9-3.9,1.4-6.4,1.4c-3.5,0-6.2-1-8.2-3.1c-1.9-2.1-2.8-5-2.8-8.7c0-3.9,1-6.8,3-9
		c1.9-2.1,4.7-3.2,8.2-3.2c2.2,0,4.2,0.4,6,1.3v3.7c-2-0.6-3.7-0.8-5.1-0.8c-2.3,0-4,0.6-5,1.9c-1.1,1.2-1.6,3.1-1.6,5.6v0.6
		c0,2.5,0.5,4.4,1.6,5.6c1,1.2,2.7,1.8,5,1.8c1.6,0,3.4-0.3,5.3-1V243.6z M1257.6,243.6"/>
	<path class="st1" d="M1275.8,244.5l-0.4-2.2c-1.1,0.9-2.2,1.6-3.5,2.1c-1.3,0.5-2.5,0.8-3.8,0.8c-2.1,0-3.9-0.6-5.2-1.9
		c-1.3-1.3-1.9-2.9-1.9-4.9c0-2.2,0.8-4,2.4-5.3c1.6-1.3,3.8-2,6.6-2c1.6,0,3.3,0.2,5.3,0.7V229c0-1.5-0.3-2.6-1-3.2
		c-0.6-0.6-1.8-0.9-3.5-0.9c-2.4,0-5.1,0.5-8.1,1.5v-3.7c1.1-0.5,2.5-1,4-1.3c1.6-0.3,3.2-0.5,4.9-0.5c3,0,5.1,0.6,6.5,1.8
		s2.1,3.1,2.1,5.6v16.2H1275.8z M1269.5,241.4c0.9,0,1.8-0.2,2.7-0.5c1-0.4,2-0.9,2.9-1.6v-4.4c-1.6-0.3-3.1-0.5-4.3-0.5
		c-3.1,0-4.7,1.2-4.7,3.7c0,1.1,0.3,1.9,0.9,2.5C1267.6,241.1,1268.5,241.4,1269.5,241.4L1269.5,241.4z M1269.5,241.4"/>
	<path class="st1" d="M1299.8,244c-1.6,0.6-3.3,0.8-5.1,0.8c-2.4,0-4.2-0.5-5.3-1.7c-1.1-1.1-1.7-2.8-1.7-5.1v-12.5h-3.9v-3.3
		l4.1-0.6l0.8-6.5h4.4v6.4h6.5v4h-6.5v12.2c0,1,0.2,1.8,0.7,2.2c0.5,0.4,1.3,0.6,2.5,0.6c1.3,0,2.5-0.1,3.5-0.3V244z M1299.8,244"/>
	<path class="st1" d="M1304.3,244.5v-23h5.3v23H1304.3z M1306.9,217.7c-1,0-1.8-0.3-2.4-0.8c-0.6-0.5-0.8-1.3-0.8-2.2
		c0-1,0.3-1.7,0.8-2.2c0.6-0.5,1.4-0.8,2.4-0.8c1,0,1.8,0.3,2.3,0.8c0.6,0.5,0.9,1.3,0.9,2.2c0,0.9-0.3,1.7-0.9,2.2
		C1308.7,217.5,1307.9,217.7,1306.9,217.7L1306.9,217.7z M1306.9,217.7"/>
	<path class="st1" d="M1326.2,245.2c-3.5,0-6.3-1-8.2-3.2c-2-2.2-3-5.2-3-9.1c0-3.8,1-6.8,3-8.9c1.9-2.1,4.7-3.2,8.2-3.2
		c3.5,0,6.2,1.1,8.2,3.2c2,2.1,3,5.1,3,8.9c0,3.9-1,6.9-3,9.1C1332.4,244.2,1329.7,245.2,1326.2,245.2L1326.2,245.2z M1326.2,241
		c3.7,0,5.6-2.7,5.6-8c0-5.3-1.9-7.9-5.6-7.9c-3.8,0-5.7,2.6-5.7,7.9C1320.5,238.3,1322.4,241,1326.2,241L1326.2,241z M1326.2,241"
		/>
	<path class="st1" d="M1357.9,244.5v-15.2c0-1.5-0.3-2.6-0.9-3.2c-0.6-0.7-1.6-1-2.9-1c-2,0-4,0.7-6.1,2v17.5h-5.3v-23h4.4l0.5,2.5
		c2.8-2.1,5.8-3.2,8.9-3.2c2.2,0,3.9,0.6,5,1.7c1.2,1.2,1.7,2.8,1.7,5.1v16.9H1357.9z M1357.9,244.5"/>
	<path class="st1" d="M1387.9,230.1c-2.5-0.9-4.4-2.1-5.5-3.4c-1.1-1.4-1.7-3.1-1.7-5.1c0-2.8,1-5,3-6.6c2-1.7,4.6-2.5,8-2.5
		c2.8,0,5.6,0.6,8.5,1.6v4.4c-3-0.9-5.6-1.3-8-1.3c-4,0-6,1.3-6,4c0,1,0.4,1.9,1.1,2.6c0.7,0.6,2,1.3,3.9,1.9l3.9,1.4
		c2.5,0.9,4.3,2.1,5.5,3.4c1.2,1.3,1.7,3,1.7,5.1c0,3.1-1.1,5.4-3.2,7.2c-2.1,1.7-5.1,2.6-8.8,2.6c-1.6,0-3.2-0.2-4.8-0.5
		c-1.6-0.3-3-0.7-4.2-1.3v-4.4c1.4,0.5,3,0.8,4.6,1.1c1.6,0.3,3.1,0.4,4.4,0.4c2.1,0,3.7-0.3,4.9-1.1c1.2-0.8,1.7-1.9,1.7-3.3
		c0-1-0.3-1.9-1-2.5c-0.7-0.7-1.9-1.4-3.7-2.1L1387.9,230.1z M1387.9,230.1"/>
	<path class="st1" d="M1411.3,234.3c0.1,2.3,0.7,3.9,1.9,5c1.2,1.1,3,1.6,5.5,1.6c2.2,0,4.6-0.4,7.2-1.2v3.7c-1,0.6-2.2,1-3.7,1.3
		c-1.4,0.3-2.8,0.5-4.3,0.5c-3.8,0-6.7-1-8.7-3.1c-2-2.1-3-5-3-9c0-3.9,1-6.9,2.9-9.1c1.9-2.2,4.6-3.3,8-3.3c3,0,5.2,0.8,6.8,2.4
		c1.6,1.6,2.4,3.9,2.4,6.8c0,1.6-0.1,3-0.4,4.2H1411.3z M1417.1,224.7c-1.6,0-3,0.5-4,1.6c-1,1.1-1.6,2.5-1.8,4.4h10.5v-0.3
		c0-1.8-0.4-3.2-1.2-4.2C1419.7,225.2,1418.6,224.7,1417.1,224.7L1417.1,224.7z M1417.1,224.7"/>
	<path class="st1" d="M1431.6,244.5v-23h4.4l0.7,3.4c1.2-1.3,2.3-2.2,3.3-2.8c1.1-0.5,2.2-0.8,3.5-0.8c0.6,0,1.2,0,1.9,0.1v4.9
		c-0.9-0.2-1.7-0.3-2.6-0.3c-2.2,0-4.2,0.6-5.9,1.7v16.7H1431.6z M1431.6,244.5"/>
	<path class="st1" d="M1455.1,244.5l-8.9-23h5.7l5.8,18.2l6-18.2h5.5l-8.9,23H1455.1z M1455.1,244.5"/>
	<path class="st1" d="M1472.8,244.5v-23h5.3v23H1472.8z M1475.5,217.7c-1,0-1.8-0.3-2.4-0.8c-0.6-0.5-0.8-1.3-0.8-2.2
		c0-1,0.3-1.7,0.8-2.2c0.6-0.5,1.4-0.8,2.4-0.8c1,0,1.8,0.3,2.3,0.8c0.6,0.5,0.9,1.3,0.9,2.2c0,0.9-0.3,1.7-0.9,2.2
		C1477.2,217.5,1476.4,217.7,1475.5,217.7L1475.5,217.7z M1475.5,217.7"/>
	<path class="st1" d="M1501,243.6c-1.8,0.9-3.9,1.4-6.4,1.4c-3.5,0-6.2-1-8.2-3.1c-1.9-2.1-2.8-5-2.8-8.7c0-3.9,1-6.8,3-9
		c2-2.1,4.7-3.2,8.2-3.2c2.2,0,4.2,0.4,6,1.3v3.7c-2-0.6-3.7-0.8-5.1-0.8c-2.3,0-4,0.6-5,1.9c-1.1,1.2-1.6,3.1-1.6,5.6v0.6
		c0,2.5,0.5,4.4,1.6,5.6c1.1,1.2,2.7,1.8,5,1.8c1.6,0,3.4-0.3,5.3-1V243.6z M1501,243.6"/>
	<path class="st1" d="M1509.5,234.3c0.1,2.3,0.7,3.9,1.9,5c1.2,1.1,3,1.6,5.5,1.6c2.2,0,4.6-0.4,7.2-1.2v3.7c-1,0.6-2.3,1-3.7,1.3
		c-1.4,0.3-2.8,0.5-4.3,0.5c-3.8,0-6.7-1-8.7-3.1c-2-2.1-3-5-3-9c0-3.9,1-6.9,2.9-9.1c1.9-2.2,4.6-3.3,8-3.3c3,0,5.2,0.8,6.8,2.4
		c1.6,1.6,2.4,3.9,2.4,6.8c0,1.6-0.1,3-0.4,4.2H1509.5z M1515.3,224.7c-1.6,0-3,0.5-4,1.6c-1,1.1-1.6,2.5-1.8,4.4h10.5v-0.3
		c0-1.8-0.4-3.2-1.2-4.2C1518,225.2,1516.8,224.7,1515.3,224.7L1515.3,224.7z M1515.3,224.7"/>
	<path class="st1" d="M1540.3,238.3c0-0.7-0.2-1.2-0.6-1.6c-0.4-0.4-1.2-0.9-2.4-1.3l-3.7-1.4c-3.4-1.3-5.1-3.4-5.1-6.4
		c0-2.1,0.8-3.7,2.3-4.9c1.6-1.2,3.7-1.9,6.3-1.9c2.5,0,4.8,0.5,6.8,1.5v3.7c-2.4-0.8-4.5-1.2-6.5-1.2c-1.4,0-2.4,0.2-3,0.6
		c-0.6,0.4-1,1-1,1.9c0,0.6,0.2,1.2,0.6,1.6c0.5,0.4,1.3,0.8,2.6,1.3l3.5,1.3c1.8,0.7,3.1,1.5,3.9,2.5c0.8,0.9,1.2,2.2,1.2,3.7
		c0,2.2-0.8,4-2.4,5.3c-1.6,1.3-3.9,2-6.7,2c-1.4,0-2.8-0.2-4.2-0.5c-1.4-0.3-2.6-0.7-3.6-1.2v-3.8c2.9,0.9,5.5,1.4,7.7,1.4
		c1.5,0,2.6-0.2,3.3-0.7C1540,239.9,1540.3,239.2,1540.3,238.3L1540.3,238.3z M1540.3,238.3"/>
	<path class="st1" d="M1184.7,288.9c-2.4,0.9-5.1,1.3-8.2,1.3c-5,0-8.7-1.3-11.3-3.9c-2.5-2.7-3.8-6.6-3.8-11.8
		c0-5.3,1.3-9.4,3.9-12.3c2.7-2.9,6.4-4.4,11.4-4.4c2.7,0,5.2,0.4,7.5,1.2v4.6c-3-0.6-5.3-1-7-1c-3.4,0-6,0.9-7.6,2.7
		c-1.6,1.8-2.4,4.5-2.4,8.2v1.1c0,3.6,0.8,6.4,2.4,8.2c1.7,1.8,4.2,2.6,7.6,2.6c1.9,0,4.4-0.4,7.5-1.2V288.9z M1184.7,288.9"/>
	<path class="st1" d="M1199.4,290.4c-3.5,0-6.3-1-8.2-3.2c-2-2.2-3-5.2-3-9.1c0-3.8,1-6.8,3-8.9c2-2.1,4.7-3.2,8.2-3.2
		c3.5,0,6.2,1.1,8.2,3.2c2,2.1,3,5.1,3,8.9c0,3.9-1,6.9-3,9.1C1205.6,289.4,1202.9,290.4,1199.4,290.4L1199.4,290.4z M1199.4,286.2
		c3.7,0,5.7-2.7,5.7-8c0-5.3-1.9-7.9-5.7-7.9c-3.8,0-5.7,2.6-5.7,7.9C1193.7,283.5,1195.6,286.2,1199.4,286.2L1199.4,286.2z
		 M1199.4,286.2"/>
	<path class="st1" d="M1244.9,289.7v-15.6c0-1.4-0.3-2.4-0.8-3c-0.5-0.6-1.4-0.9-2.6-0.9c-0.9,0-1.9,0.2-3,0.4c-1,0.3-2,0.7-2.8,1.2
		v17.8h-5.3v-15.6c0-1.4-0.3-2.4-0.8-3c-0.5-0.6-1.4-0.9-2.6-0.9c-0.9,0-1.8,0.2-2.8,0.4c-1,0.3-2,0.7-2.9,1.2v17.8h-5.3v-23h4.4
		l0.4,2.3c1.5-1,3-1.8,4.3-2.3c1.3-0.5,2.7-0.8,4-0.8c2.8,0,4.7,1.1,5.8,3.1c3-2.1,5.9-3.1,8.7-3.1c2.1,0,3.8,0.6,4.9,1.7
		c1.2,1.2,1.8,2.8,1.8,5.1v16.9H1244.9z M1244.9,289.7"/>
	<path class="st1" d="M1256.7,299v-32.3h4.4l0.4,2.3c1.1-1,2.2-1.7,3.5-2.3c1.3-0.5,2.6-0.8,4-0.8c2.8,0,5.2,1.1,6.9,3.2
		c1.7,2.1,2.6,5.1,2.6,8.7c0,2.4-0.4,4.5-1.2,6.4c-0.8,1.8-1.9,3.3-3.4,4.4c-1.5,1.1-3.2,1.6-5.1,1.6c-1.3,0-2.5-0.2-3.7-0.6
		c-1.2-0.5-2.2-1.1-3-1.9V299H1256.7z M1267.4,270.3c-2,0-3.8,0.6-5.4,1.7v12.3c1.7,1.2,3.5,1.7,5.4,1.7c1.9,0,3.3-0.6,4.2-1.9
		c0.9-1.3,1.4-3.3,1.4-6c0-2.7-0.5-4.6-1.4-5.8C1270.7,270.9,1269.3,270.3,1267.4,270.3L1267.4,270.3z M1267.4,270.3"/>
	<path class="st1" d="M1287.5,279.5c0.1,2.3,0.7,3.9,1.9,5c1.2,1.1,3,1.6,5.5,1.6c2.2,0,4.6-0.4,7.2-1.2v3.7c-1,0.6-2.2,1-3.7,1.3
		c-1.4,0.3-2.8,0.5-4.3,0.5c-3.8,0-6.7-1-8.7-3.1c-2-2.1-3-5-3-9c0-3.9,1-6.9,2.9-9.1c1.9-2.2,4.6-3.3,8-3.3c3,0,5.2,0.8,6.8,2.4
		c1.6,1.6,2.4,3.9,2.4,6.8c0,1.6-0.1,3-0.4,4.2H1287.5z M1293.3,269.9c-1.6,0-3,0.5-4,1.6c-1,1.1-1.6,2.5-1.8,4.4h10.5v-0.3
		c0-1.8-0.4-3.2-1.2-4.2C1296,270.4,1294.8,269.9,1293.3,269.9L1293.3,269.9z M1293.3,269.9"/>
	<path class="st1" d="M1321.2,289.2c-1.6,0.6-3.3,0.8-5.1,0.8c-2.4,0-4.2-0.5-5.3-1.7c-1.1-1.1-1.7-2.8-1.7-5.1v-12.5h-3.9v-3.3
		l4.1-0.6l0.8-6.5h4.4v6.4h6.5v4h-6.5V283c0,1,0.2,1.8,0.7,2.2c0.5,0.4,1.3,0.6,2.5,0.6c1.3,0,2.5-0.1,3.5-0.3V289.2z M1321.2,289.2
		"/>
	<path class="st1" d="M1329.2,279.5c0.1,2.3,0.7,3.9,1.9,5c1.2,1.1,3,1.6,5.5,1.6c2.2,0,4.6-0.4,7.2-1.2v3.7c-1,0.6-2.2,1-3.7,1.3
		c-1.4,0.3-2.8,0.5-4.3,0.5c-3.8,0-6.7-1-8.7-3.1c-2-2.1-3-5-3-9c0-3.9,1-6.9,2.9-9.1c1.9-2.2,4.6-3.3,8-3.3c3,0,5.2,0.8,6.8,2.4
		c1.6,1.6,2.4,3.9,2.4,6.8c0,1.6-0.1,3-0.4,4.2H1329.2z M1335,269.9c-1.6,0-3,0.5-4,1.6c-1,1.1-1.6,2.5-1.8,4.4h10.5v-0.3
		c0-1.8-0.4-3.2-1.2-4.2C1337.7,270.4,1336.5,269.9,1335,269.9L1335,269.9z M1335,269.9"/>
	<path class="st1" d="M1364.8,289.7v-15.2c0-1.5-0.3-2.6-0.9-3.2c-0.6-0.7-1.6-1-2.9-1c-2,0-4,0.7-6.1,2v17.5h-5.3v-23h4.4l0.5,2.5
		c2.8-2.1,5.8-3.2,8.9-3.2c2.2,0,3.9,0.6,5,1.7c1.2,1.2,1.7,2.8,1.7,5.1v16.9H1364.8z M1364.8,289.7"/>
	<path class="st1" d="M1392.7,288.8c-1.8,0.9-3.9,1.4-6.4,1.4c-3.5,0-6.2-1-8.2-3.1c-1.9-2.1-2.8-5-2.8-8.7c0-3.9,1-6.8,3-9
		c1.9-2.1,4.7-3.2,8.2-3.2c2.2,0,4.2,0.4,6,1.3v3.7c-2-0.6-3.7-0.8-5.1-0.8c-2.3,0-4,0.6-5,1.9c-1.1,1.2-1.6,3.1-1.6,5.6v0.6
		c0,2.5,0.5,4.4,1.6,5.6c1,1.2,2.7,1.8,5,1.8c1.6,0,3.4-0.3,5.3-1V288.8z M1392.7,288.8"/>
	<path class="st1" d="M1403.5,290l-9-23.2h5.7l5.8,18.2l6-18.2h5.5l-10.3,26.6c-0.8,2.2-1.8,3.7-3,4.7c-1.2,1-2.7,1.5-4.5,1.5
		c-1.3,0-2.6-0.2-3.8-0.6v-3.7c0.7,0.2,1.5,0.3,2.3,0.3c1.3,0,2.2-0.2,2.9-0.7c0.6-0.5,1.2-1.5,1.9-3.1L1403.5,290z M1403.5,290"/>
	<rect x="1134.4" y="330.8" class="st2" width="10.3" height="10.3"/>
	<path class="st1" d="M1182.3,351.4l-2.6-7.8h-12l-2.6,7.8h-5.7l11.4-31.3h6l11.4,31.3H1182.3z M1168.9,339.5h9.4l-4.8-14.4
		L1168.9,339.5z M1168.9,339.5"/>
	<path class="st1" d="M1220.8,351.4v-15.6c0-1.4-0.3-2.4-0.8-3c-0.5-0.6-1.4-0.9-2.6-0.9c-0.9,0-2,0.2-3,0.4c-1,0.3-2,0.7-2.8,1.2
		v17.8h-5.3v-15.6c0-1.4-0.3-2.4-0.8-3c-0.5-0.6-1.4-0.9-2.6-0.9c-0.9,0-1.8,0.2-2.8,0.4c-1,0.3-2,0.7-2.9,1.2v17.8h-5.3v-23h4.4
		l0.4,2.3c1.5-1,3-1.8,4.3-2.3c1.3-0.5,2.7-0.8,4-0.8c2.8,0,4.7,1.1,5.8,3.1c3-2.1,5.9-3.1,8.7-3.1c2.1,0,3.8,0.6,4.9,1.7
		c1.2,1.2,1.8,2.8,1.8,5.1v16.9H1220.8z M1220.8,351.4"/>
	<path class="st1" d="M1245.9,351.4l-0.4-2.2c-1.1,0.9-2.2,1.6-3.5,2.1c-1.3,0.5-2.5,0.8-3.8,0.8c-2.1,0-3.9-0.6-5.2-1.9
		c-1.3-1.3-1.9-2.9-1.9-4.9c0-2.2,0.8-4,2.4-5.3c1.6-1.3,3.8-2,6.5-2c1.6,0,3.3,0.2,5.3,0.7v-2.7c0-1.5-0.3-2.6-1-3.2
		c-0.6-0.6-1.8-0.9-3.5-0.9c-2.4,0-5.1,0.5-8.1,1.5v-3.7c1.1-0.5,2.5-1,4-1.3c1.6-0.3,3.2-0.5,4.9-0.5c3,0,5.1,0.6,6.6,1.8
		c1.4,1.2,2.1,3.1,2.1,5.6v16.2H1245.9z M1239.7,348.2c0.9,0,1.8-0.2,2.7-0.5c1-0.4,1.9-0.9,2.9-1.6v-4.4c-1.6-0.3-3.1-0.5-4.3-0.5
		c-3.1,0-4.7,1.2-4.7,3.7c0,1.1,0.3,1.9,0.9,2.5C1237.8,347.9,1238.6,348.2,1239.7,348.2L1239.7,348.2z M1239.7,348.2"/>
	<path class="st1" d="M1254.9,351.4v-3.9l12.8-15h-12.4v-4h18.1v3.9l-12.8,15h13v4H1254.9z M1254.9,351.4"/>
	<path class="st1" d="M1288.4,352.1c-3.5,0-6.3-1-8.2-3.2c-2-2.2-3-5.2-3-9.1c0-3.8,1-6.8,3-8.9c2-2.1,4.7-3.2,8.2-3.2
		c3.5,0,6.2,1.1,8.2,3.2c2,2.1,3,5.1,3,8.9c0,3.9-1,6.9-3,9.1C1294.6,351,1291.9,352.1,1288.4,352.1L1288.4,352.1z M1288.4,347.8
		c3.7,0,5.7-2.7,5.7-8c0-5.3-1.9-7.9-5.7-7.9c-3.8,0-5.7,2.6-5.7,7.9C1282.7,345.2,1284.6,347.8,1288.4,347.8L1288.4,347.8z
		 M1288.4,347.8"/>
	<path class="st1" d="M1320.1,351.4v-15.2c0-1.5-0.3-2.6-0.9-3.2c-0.6-0.7-1.6-1-2.9-1c-2,0-4,0.7-6.1,2v17.5h-5.3v-23h4.4l0.5,2.5
		c2.8-2.1,5.8-3.2,8.9-3.2c2.2,0,3.9,0.6,5,1.7c1.2,1.2,1.7,2.8,1.7,5.1v16.9H1320.1z M1320.1,351.4"/>
	<path class="st1" d="M1344.1,351.4V320h19.9v4.4h-14.4v8.6h11.9v4.4h-11.9v9.4h14.4v4.4H1344.1z M1344.1,351.4"/>
	<path class="st1" d="M1391.6,350.5c-2.4,0.9-5.1,1.3-8.2,1.3c-5,0-8.7-1.3-11.3-3.9c-2.5-2.7-3.8-6.6-3.8-11.8
		c0-5.3,1.3-9.4,3.9-12.3c2.7-2.9,6.4-4.4,11.4-4.4c2.7,0,5.2,0.4,7.5,1.2v4.6c-3-0.6-5.3-1-7-1c-3.4,0-6,0.9-7.6,2.7
		c-1.6,1.8-2.4,4.5-2.4,8.2v1.1c0,3.6,0.8,6.4,2.4,8.2c1.7,1.8,4.2,2.6,7.6,2.6c1.9,0,4.4-0.4,7.5-1.2V350.5z M1391.6,350.5"/>
	<path class="st1" d="M1395.9,351.4v-4c4.1-4.2,7.2-7.5,9.1-9.8c2-2.3,3.3-4.1,4.1-5.5c0.8-1.4,1.2-2.7,1.2-3.9
		c0-1.4-0.4-2.4-1.2-3.2c-0.8-0.8-2-1.2-3.5-1.2c-1.3,0-2.7,0.3-4.2,0.9c-1.5,0.6-3,1.4-4.6,2.5v-4.4c2.9-2.3,6.1-3.5,9.6-3.5
		c1.9,0,3.6,0.3,5,1c1.4,0.7,2.5,1.7,3.3,3c0.8,1.2,1.2,2.7,1.2,4.5c0,1.7-0.4,3.4-1.3,5.1c-0.9,1.7-2.3,3.7-4.3,5.9
		c-2,2.2-4.7,4.9-8.2,8.2h15.2v4.3H1395.9z M1395.9,351.4"/>
	<path class="st1" d="M1436.3,351.4v-18.9h-4v-3.3l4-0.6v-3.1c0-5.4,2.5-8.2,7.6-8.2c1.8,0,3.4,0.3,4.8,0.9v3.7
		c-1.8-0.2-2.9-0.3-3.5-0.3c-1.3,0-2.2,0.3-2.8,0.8c-0.6,0.5-0.8,1.3-0.8,2.4v3.7h6.7v4h-6.7v18.9H1436.3z M1436.3,351.4"/>
	<path class="st1" d="M1461.8,352.1c-3.5,0-6.3-1-8.2-3.2c-2-2.2-3-5.2-3-9.1c0-3.8,1-6.8,3-8.9c1.9-2.1,4.7-3.2,8.2-3.2
		c3.5,0,6.2,1.1,8.2,3.2c2,2.1,3,5.1,3,8.9c0,3.9-1,6.9-3,9.1C1468,351,1465.3,352.1,1461.8,352.1L1461.8,352.1z M1461.8,347.8
		c3.7,0,5.6-2.7,5.6-8c0-5.3-1.9-7.9-5.6-7.9c-3.8,0-5.7,2.6-5.7,7.9C1456.1,345.2,1458,347.8,1461.8,347.8L1461.8,347.8z
		 M1461.8,347.8"/>
	<path class="st1" d="M1478.3,351.4v-23h4.4l0.7,3.4c1.2-1.3,2.3-2.2,3.3-2.8c1.1-0.5,2.2-0.8,3.5-0.8c0.6,0,1.2,0,1.9,0.1v4.9
		c-0.9-0.2-1.7-0.3-2.6-0.3c-2.2,0-4.2,0.6-5.9,1.7v16.7H1478.3z M1478.3,351.4"/>
	<path class="st1" d="M1531,351.4l-5.6-23.6l-5.5,23.6h-6.1L1505,320h6l6,25.4l5.6-24.5h5.9l5.6,24.4l6-25.3h5.8l-8.9,31.3H1531z
		 M1531,351.4"/>
	<path class="st1" d="M1550.1,351.4v-23h5.3v23H1550.1z M1552.7,324.6c-1,0-1.8-0.3-2.4-0.8c-0.6-0.5-0.8-1.3-0.8-2.2
		c0-1,0.3-1.7,0.8-2.2c0.6-0.5,1.4-0.8,2.4-0.8c1,0,1.8,0.3,2.3,0.8c0.6,0.5,0.9,1.3,0.9,2.2c0,0.9-0.3,1.7-0.9,2.2
		C1554.5,324.3,1553.7,324.6,1552.7,324.6L1552.7,324.6z M1552.7,324.6"/>
	<path class="st1" d="M1577.4,351.4v-15.2c0-1.5-0.3-2.6-0.9-3.2c-0.6-0.7-1.6-1-2.9-1c-2,0-4,0.7-6.1,2v17.5h-5.3v-23h4.4l0.5,2.5
		c2.8-2.1,5.8-3.2,8.9-3.2c2.2,0,3.9,0.6,5,1.7c1.2,1.2,1.7,2.8,1.7,5.1v16.9H1577.4z M1577.4,351.4"/>
	<path class="st1" d="M1605.1,351.4l-0.6-2.2c-2,1.8-4.4,2.7-7.1,2.7c-2.9,0-5.2-1.1-7-3.2c-1.7-2.2-2.6-5.1-2.6-8.7
		c0-2.4,0.4-4.5,1.2-6.4c0.8-1.8,1.9-3.3,3.4-4.3c1.5-1.1,3.3-1.6,5.3-1.6c2.4,0,4.6,0.8,6.6,2.4v-12.1h5.3v33.4H1605.1z
		 M1599.1,347.6c1.8,0,3.5-0.5,5.2-1.7v-12.5c-1.5-1-3.3-1.6-5.1-1.6c-2,0-3.5,0.6-4.4,1.9c-0.9,1.2-1.4,3.2-1.4,5.8
		C1593.3,345,1595.2,347.6,1599.1,347.6L1599.1,347.6z M1599.1,347.6"/>
	<path class="st1" d="M1626.1,352.1c-3.5,0-6.3-1-8.2-3.2c-2-2.2-3-5.2-3-9.1c0-3.8,1-6.8,3-8.9c2-2.1,4.7-3.2,8.2-3.2
		c3.5,0,6.2,1.1,8.2,3.2c2,2.1,3,5.1,3,8.9c0,3.9-1,6.9-3,9.1C1632.3,351,1629.6,352.1,1626.1,352.1L1626.1,352.1z M1626.1,347.8
		c3.7,0,5.6-2.7,5.6-8c0-5.3-1.9-7.9-5.6-7.9c-3.8,0-5.7,2.6-5.7,7.9C1620.4,345.2,1622.3,347.8,1626.1,347.8L1626.1,347.8z
		 M1626.1,347.8"/>
	<path class="st1" d="M1661.4,351.4l-4.5-17.3l-4.6,17.3h-5.2l-7.4-23h5.7l4.5,17.5l4.6-17.5h5l4.6,17.8l4.8-17.8h5.3l-7.6,23
		H1661.4z M1661.4,351.4"/>
	<path class="st1" d="M1688.2,345.1c0-0.7-0.2-1.2-0.6-1.6c-0.4-0.4-1.2-0.9-2.4-1.3l-3.7-1.4c-3.4-1.3-5.1-3.4-5.1-6.4
		c0-2.1,0.8-3.7,2.3-4.9c1.6-1.2,3.7-1.9,6.3-1.9c2.5,0,4.8,0.5,6.8,1.5v3.7c-2.4-0.8-4.5-1.2-6.5-1.2c-1.4,0-2.4,0.2-3,0.6
		c-0.6,0.4-1,1-1,1.9c0,0.6,0.2,1.2,0.6,1.6c0.5,0.4,1.3,0.8,2.6,1.3l3.5,1.3c1.8,0.7,3.1,1.5,3.9,2.5c0.8,0.9,1.2,2.2,1.2,3.7
		c0,2.2-0.8,4-2.4,5.3c-1.6,1.3-3.9,2-6.7,2c-1.4,0-2.8-0.2-4.2-0.5c-1.4-0.3-2.6-0.7-3.6-1.2v-3.8c2.9,0.9,5.5,1.4,7.7,1.4
		c1.5,0,2.6-0.2,3.3-0.7C1687.9,346.8,1688.2,346.1,1688.2,345.1L1688.2,345.1z M1688.2,345.1"/>
	<path class="st1" d="M1168.7,382.1c-2.5-0.9-4.4-2.1-5.5-3.4c-1.1-1.4-1.7-3.1-1.7-5.1c0-2.8,1-5,3-6.6c2-1.7,4.6-2.5,8-2.5
		c2.8,0,5.6,0.6,8.5,1.6v4.4c-3-0.9-5.6-1.3-8-1.3c-4,0-6,1.3-6,4c0,1,0.4,1.9,1.1,2.6c0.7,0.6,2,1.3,3.9,1.9l3.9,1.4
		c2.5,0.9,4.3,2.1,5.5,3.4c1.2,1.3,1.7,3,1.7,5.1c0,3.1-1.1,5.4-3.2,7.2c-2.1,1.7-5.1,2.6-8.8,2.6c-1.6,0-3.2-0.2-4.8-0.5
		c-1.6-0.3-3-0.7-4.2-1.3v-4.4c1.4,0.5,3,0.8,4.6,1.1c1.6,0.3,3.1,0.4,4.4,0.4c2.1,0,3.7-0.3,4.9-1.1c1.2-0.8,1.7-1.9,1.7-3.3
		c0-1-0.3-1.9-1-2.5c-0.7-0.7-1.9-1.4-3.7-2.1L1168.7,382.1z M1168.7,382.1"/>
	<path class="st1" d="M1192.1,386.4c0.1,2.3,0.7,3.9,1.9,5c1.2,1.1,3,1.6,5.5,1.6c2.2,0,4.6-0.4,7.2-1.2v3.7c-1,0.6-2.2,1-3.7,1.3
		c-1.4,0.3-2.8,0.5-4.3,0.5c-3.8,0-6.7-1-8.7-3.1c-2-2.1-3-5-3-9c0-3.9,1-6.9,2.9-9.1c1.9-2.2,4.6-3.3,8-3.3c3,0,5.2,0.8,6.8,2.4
		c1.6,1.6,2.4,3.9,2.4,6.8c0,1.6-0.1,3-0.4,4.2H1192.1z M1197.9,376.8c-1.6,0-3,0.5-4,1.6c-1,1.1-1.6,2.5-1.8,4.4h10.5v-0.3
		c0-1.8-0.4-3.2-1.2-4.2C1200.6,377.3,1199.4,376.8,1197.9,376.8L1197.9,376.8z M1197.9,376.8"/>
	<path class="st1" d="M1212.5,396.6v-23h4.4l0.7,3.4c1.2-1.3,2.3-2.2,3.3-2.8c1.1-0.5,2.2-0.8,3.5-0.8c0.6,0,1.2,0,1.9,0.1v4.9
		c-0.9-0.2-1.7-0.3-2.6-0.3c-2.2,0-4.2,0.6-5.9,1.7v16.7H1212.5z M1212.5,396.6"/>
	<path class="st1" d="M1235.9,396.6l-8.9-23h5.7l5.8,18.2l6-18.2h5.5l-8.9,23H1235.9z M1235.9,396.6"/>
	<path class="st1" d="M1257.2,386.4c0.1,2.3,0.7,3.9,1.9,5c1.2,1.1,3,1.6,5.5,1.6c2.2,0,4.6-0.4,7.2-1.2v3.7c-1,0.6-2.2,1-3.7,1.3
		c-1.4,0.3-2.8,0.5-4.3,0.5c-3.8,0-6.7-1-8.7-3.1c-2-2.1-3-5-3-9c0-3.9,1-6.9,2.9-9.1c1.9-2.2,4.6-3.3,8-3.3c3,0,5.2,0.8,6.8,2.4
		c1.6,1.6,2.4,3.9,2.4,6.8c0,1.6-0.1,3-0.4,4.2H1257.2z M1263,376.8c-1.6,0-3,0.5-4,1.6c-1,1.1-1.6,2.5-1.8,4.4h10.5v-0.3
		c0-1.8-0.4-3.2-1.2-4.2C1265.7,377.3,1264.5,376.8,1263,376.8L1263,376.8z M1263,376.8"/>
	<path class="st1" d="M1277.6,396.6v-23h4.4l0.7,3.4c1.2-1.3,2.3-2.2,3.3-2.8c1.1-0.5,2.2-0.8,3.5-0.8c0.6,0,1.2,0,1.9,0.1v4.9
		c-0.9-0.2-1.7-0.3-2.6-0.3c-2.2,0-4.2,0.6-5.9,1.7v16.7H1277.6z M1277.6,396.6"/>
	<path class="st1" d="M1307.3,396.6v-31.3h10.7c4.6,0,8.2,1.3,10.6,4c2.5,2.7,3.7,6.5,3.7,11.6c0,5.1-1.3,8.9-3.7,11.7
		c-2.5,2.7-6,4-10.7,4H1307.3z M1312.8,369.6v22.6h4.6c6.2,0,9.3-3.6,9.3-10.8v-1c0-7.2-3.1-10.8-9.3-10.8H1312.8z M1312.8,369.6"/>
	<path class="st1" d="M1341.7,386.4c0.1,2.3,0.7,3.9,1.9,5c1.2,1.1,3,1.6,5.5,1.6c2.2,0,4.6-0.4,7.2-1.2v3.7c-1,0.6-2.2,1-3.7,1.3
		c-1.4,0.3-2.8,0.5-4.3,0.5c-3.8,0-6.7-1-8.7-3.1c-2-2.1-3-5-3-9c0-3.9,1-6.9,2.9-9.1c1.9-2.2,4.6-3.3,8-3.3c3,0,5.2,0.8,6.8,2.4
		c1.6,1.6,2.4,3.9,2.4,6.8c0,1.6-0.1,3-0.4,4.2H1341.7z M1347.5,376.8c-1.6,0-3,0.5-4,1.6c-1,1.1-1.6,2.5-1.8,4.4h10.5v-0.3
		c0-1.8-0.4-3.2-1.2-4.2C1350.1,377.3,1349,376.8,1347.5,376.8L1347.5,376.8z M1347.5,376.8"/>
	<path class="st1" d="M1371.1,396.2c-1.1,0.4-2.3,0.6-3.6,0.6c-1.8,0-3.1-0.5-4-1.5c-0.9-1-1.3-2.5-1.3-4.4v-27.8h5.3v27.4
		c0,0.8,0.1,1.3,0.4,1.6c0.3,0.3,0.8,0.5,1.5,0.5c0.5,0,1.1,0,1.8-0.1V396.2z M1371.1,396.2"/>
	<path class="st1" d="M1375.9,396.6v-23h5.3v23H1375.9z M1378.5,369.8c-1,0-1.8-0.3-2.4-0.8c-0.6-0.5-0.8-1.3-0.8-2.2
		c0-1,0.3-1.7,0.8-2.2c0.6-0.5,1.4-0.8,2.4-0.8c1,0,1.8,0.3,2.3,0.8c0.6,0.5,0.9,1.3,0.9,2.2c0,0.9-0.3,1.7-0.9,2.2
		C1380.3,369.5,1379.5,369.8,1378.5,369.8L1378.5,369.8z M1378.5,369.8"/>
	<path class="st1" d="M1393.9,396.6l-8.9-23h5.7l5.8,18.2l6-18.2h5.5l-8.9,23H1393.9z M1393.9,396.6"/>
	<path class="st1" d="M1415.1,386.4c0.1,2.3,0.7,3.9,1.9,5c1.2,1.1,3,1.6,5.5,1.6c2.2,0,4.6-0.4,7.2-1.2v3.7c-1,0.6-2.2,1-3.7,1.3
		c-1.4,0.3-2.8,0.5-4.3,0.5c-3.8,0-6.7-1-8.7-3.1c-2-2.1-3-5-3-9c0-3.9,1-6.9,2.9-9.1c1.9-2.2,4.6-3.3,8-3.3c3,0,5.2,0.8,6.8,2.4
		c1.6,1.6,2.4,3.9,2.4,6.8c0,1.6-0.1,3-0.4,4.2H1415.1z M1420.9,376.8c-1.6,0-3,0.5-4,1.6c-1,1.1-1.6,2.5-1.8,4.4h10.5v-0.3
		c0-1.8-0.4-3.2-1.2-4.2C1423.6,377.3,1422.4,376.8,1420.9,376.8L1420.9,376.8z M1420.9,376.8"/>
	<path class="st1" d="M1435.5,396.6v-23h4.4l0.7,3.4c1.2-1.3,2.3-2.2,3.3-2.8c1.1-0.5,2.2-0.8,3.5-0.8c0.6,0,1.2,0,1.9,0.1v4.9
		c-0.9-0.2-1.7-0.3-2.6-0.3c-2.2,0-4.2,0.6-5.9,1.7v16.7H1435.5z M1435.5,396.6"/>
	<path class="st1" d="M1459,396.8l-9-23.2h5.7l5.8,18.2l6-18.2h5.5l-10.3,26.6c-0.8,2.2-1.8,3.7-3,4.7c-1.2,1-2.7,1.5-4.5,1.5
		c-1.3,0-2.6-0.2-3.8-0.6V402c0.7,0.2,1.5,0.3,2.3,0.3c1.3,0,2.3-0.2,2.9-0.7c0.6-0.5,1.2-1.5,1.9-3.1L1459,396.8z M1459,396.8"/>
</g>
</svg>
