<?xml version="1.0" encoding="utf-8"?>
<!-- Generator: Adobe Illustrator 26.1.0, SVG Export Plug-In . SVG Version: 6.00 Build 0)  -->
<svg version="1.1" id="Capa_1" xmlns="http://www.w3.org/2000/svg" xmlns:xlink="http://www.w3.org/1999/xlink" x="0px" y="0px"
	 viewBox="0 0 24 24" style="enable-background:new 0 0 24 24;" xml:space="preserve">
<style type="text/css">
	.st0{fill:#FFFFFF;}
</style>
<path class="st0" d="M21,10h-0.2c-0.6,0-1.2-0.4-1.5-1V8.9c-0.3-0.6-0.2-1.3,0.3-1.8L19.7,7c0.4-0.4,0.6-0.9,0.6-1.4s-0.2-1-0.6-1.4
	c-0.8-0.8-2-0.8-2.8,0l-0.1,0.1c-0.5,0.4-1.2,0.6-1.8,0.3c-0.6-0.2-1-0.8-1-1.5V3c0-1.1-0.9-2-2-2s-2,0.9-2,2v0.2
	c0,0.6-0.4,1.2-1,1.5H8.9C8.3,5,7.6,4.8,7.1,4.4L7,4.3C6.6,3.9,6.1,3.7,5.6,3.7s-1,0.2-1.4,0.6c-0.8,0.8-0.8,2,0,2.8l0.1,0.1
	C4.7,7.7,4.9,8.4,4.6,9c-0.2,0.7-0.8,1.1-1.5,1.1H3c-1.1,0-2,0.9-2,2c0,1.1,0.9,2,2,2h0.2c0.6,0,1.2,0.4,1.5,1
	c0.3,0.6,0.2,1.3-0.3,1.8L4.3,17c-0.4,0.4-0.6,0.9-0.6,1.4s0.2,1,0.6,1.4c0.8,0.8,2,0.8,2.8,0l0.1-0.1c0.5-0.4,1.2-0.6,1.8-0.3
	c0.7,0.2,1.1,0.8,1.1,1.5V21c0,1.1,0.9,2,2,2c1.1,0,2-0.9,2-2v-0.2c0-0.6,0.4-1.2,1-1.5c0.6-0.3,1.3-0.2,1.8,0.3l0.1,0.1
	c0.4,0.4,0.9,0.6,1.4,0.6s1-0.2,1.4-0.6c0.8-0.8,0.8-2,0-2.8l-0.1-0.1c-0.4-0.5-0.6-1.2-0.3-1.8c0.3-0.6,0.9-1,1.5-1H21
	c1.1,0,2-0.9,2-2S22.1,10,21,10z M12,15c-1.7,0-3-1.3-3-3s1.3-3,3-3s3,1.3,3,3S13.7,15,12,15z"/>
</svg>
