<?xml version="1.0" encoding="UTF-8"?>
<svg xmlns="http://www.w3.org/2000/svg" xmlns:xlink="http://www.w3.org/1999/xlink" version="1.0" id="Layer_1" x="0px" y="0px" viewBox="0 0 1366 284" style="enable-background:new 0 0 1366 284;" xml:space="preserve"> <style type="text/css"> .st0{fill:#FFFFFF;} .st1{fill:#172D4D;} .st2{fill:#00A0F9;} </style> <g> <g> <path class="st1" d="M757.8,266.49c-21.42,0-42.49-5.72-60.94-16.55c-17.9-10.51-33-25.58-43.68-43.59 c-23.07-38.91-23.31-86.29-0.65-129.99c7.72-14.88,25.93-33.37,40.6-41.22c21.1-11.29,42.85-17.01,64.66-17.01 c49.73,0,94.07,30.24,112.96,77.04c0.55,1.35,0.4,2.82-0.4,4.04c-0.79,1.21-2.07,1.9-3.49,1.9l-59.07,0.13 c-1.41,0-2.76-0.62-3.72-1.69c-11.66-13.07-28.25-20.56-45.52-20.56c-33.99,0-61.64,28.31-61.64,63.11s27.65,63.11,61.64,63.11 c22.53,0,43.25-12.58,54.09-32.84c0.71-1.32,2.03-2.14,3.44-2.14h55.26c1.34,0,2.57,0.62,3.38,1.71c0.79,1.06,1.05,2.39,0.7,3.66 C860.84,229.11,812.46,266.49,757.8,266.49z"/> </g> <path class="st1" d="M603.37,47.8c-0.1-15.57-12.75-28.16-28.34-28.16h-36.48v242.63h64.83C603.38,262.27,603.37,47.82,603.37,47.8 z"/> <path class="st1" d="M1272.95,41.89c-4.28-12.84-16.29-22.25-30.47-22.25c-0.22,0-57.91,0-58.14,0c-14.01,0-26.02,9.28-30.38,21.98 c-0.5,1.45-59.12,220.63-59.12,220.63h67.11l15.26-56.93h72.41l15.25,56.93H1332C1332,262.26,1273.39,43.19,1272.95,41.89z M1190.25,156.7l23.18-86.5l23.18,86.5H1190.25z"/> <path class="st1" d="M968.29,198.46c0-63.21-0.01-150.65-0.01-150.66c-0.1-15.57-12.75-28.16-28.34-28.16h-36.48v242.38v0.25v0.22 h162.06v-0.23h0.56v-63.79L968.29,198.46z"/> <polygon class="st2" points="292.21,262.27 357.15,262.27 357.15,229.54 292.21,111.65 "/> <path class="st1" d="M491.92,262.27c0,0-0.01-214.45-0.01-214.47c-0.1-15.57-12.75-28.16-28.34-28.16H427.1v127.47L365.95,35.29 c-5.42-9.92-15.83-15.65-27.13-15.65H182.29v136.55c0,0,0,40.67-40.64,40.67c-40.57,0-40.64-40.67-40.64-40.67l0-136.55H36 l0.28,145.15c4.19,54.55,49.75,97.53,105.37,97.53s101.19-42.97,105.37-97.53l0.28-89.24c0.04,0.01,75.56-0.06,75.56-0.06 L427.1,262.14v0.13h0.07l0,0H491.92z"/> </g> </svg>