<?xml version="1.0" encoding="utf-8"?>
<!-- Generator: Adobe Illustrator 25.2.1, SVG Export Plug-In . SVG Version: 6.00 Build 0)  -->
<svg version="1.1" id="Capa_1" xmlns="http://www.w3.org/2000/svg" xmlns:xlink="http://www.w3.org/1999/xlink" x="0px" y="0px"
	 viewBox="0 0 24 24" style="enable-background:new 0 0 24 24;" xml:space="preserve">
<style type="text/css">
	.st0{fill:none;stroke:url(#SVGID_1_);stroke-width:1.5;stroke-linecap:round;stroke-linejoin:round;}
	.st1{fill:none;stroke:url(#SVGID_2_);stroke-width:1.5;stroke-linecap:round;stroke-linejoin:round;}
</style>
<linearGradient id="SVGID_1_" gradientUnits="userSpaceOnUse" x1="2.4525" y1="3.7012" x2="21.5844" y2="19.7548">
	<stop  offset="0" style="stop-color:#2583EE"/>
	<stop  offset="1" style="stop-color:#712F90"/>
</linearGradient>
<path class="st0" d="M22.5,6.4c-0.2-1-1-1.7-1.9-2C18.9,4,12,4,12,4S5.1,4,3.4,4.5c-1,0.3-1.7,1-1.9,2C1.1,8.2,1,10,1,11.8
	s0.1,3.6,0.5,5.3c0.3,0.9,1,1.7,1.9,1.9c1.7,0.5,8.6,0.5,8.6,0.5s6.9,0,8.6-0.5c1-0.3,1.7-1,1.9-2c0.3-1.7,0.5-3.5,0.5-5.2
	C23,10,22.9,8.2,22.5,6.4z"/>
<linearGradient id="SVGID_2_" gradientUnits="userSpaceOnUse" x1="9.05" y1="11.75" x2="16.25" y2="11.75">
	<stop  offset="0" style="stop-color:#2583EE"/>
	<stop  offset="1" style="stop-color:#712F90"/>
</linearGradient>
<polygon class="st1" points="9.8,15 15.5,11.8 9.8,8.5 "/>
</svg>
